<svg width="1280" height="347" viewBox="0 0 1280 347" fill="none" xmlns="http://www.w3.org/2000/svg">
<rect width="1280" height="347" fill="#FAF8F6"/>
<g clip-path="url(#clip0_192_1129)">
<path fill-rule="evenodd" clip-rule="evenodd" d="M166.63 202.885C165.253 203.433 163.855 203.967 162.421 204.481C160.994 205.001 159.538 205.508 158.053 205.993C148.827 209.018 138.47 211.447 126.916 212.904C125.251 213.112 123.572 213.306 121.864 213.473C120.126 213.646 118.368 213.792 116.58 213.917C111.924 214.25 107.088 214.423 102.071 214.423C95.6998 214.423 89.6022 214.111 83.7857 213.535C71.5832 202.441 59.5393 194.198 48.1657 188.064C55.6689 187.877 63.6909 187.197 72.2103 185.858C74.4447 185.504 76.7006 185.108 78.9998 184.664C81.0252 184.276 83.0721 183.845 85.1551 183.381C90.2942 182.229 95.5918 180.834 101.041 179.169C102.043 178.864 103.037 178.551 104.025 178.239C106.057 177.587 108.054 176.921 110.007 176.241C111.917 175.582 113.784 174.902 115.615 174.215C137.821 165.84 154.391 155.578 166.659 145.51C187.856 153.94 202.236 165.375 211 174.194C202.228 183.013 187.849 194.461 166.63 202.885ZM145.129 250.08C135.944 250.534 125.7 250.244 114.417 248.823C121.596 259.731 126.345 269.936 129.471 278.954C139.492 278.911 147.979 277.632 154.534 276.115C153.039 269.044 150.259 260.012 145.129 250.08ZM72.7164 320.148C74.6665 313.852 76.4357 305.447 76.6637 295.344C65.9122 289.924 54.3421 282.548 42.354 272.54C42.9748 285.104 41.6703 295.742 39.5683 304.456C52.0485 313.332 63.9477 317.856 72.7164 320.148ZM-13.3958 180.746C-13.2626 180.624 -13.13 180.504 -12.999 180.387C-12.5216 181.451 -12.0427 182.6 -11.5765 183.832C-11.241 184.716 -10.9122 185.642 -10.5941 186.611C-9.47393 190.033 -8.49355 193.986 -7.88117 198.464C-7.51111 201.165 -7.275 204.059 -7.22284 207.141C-7.12259 213.013 -7.68917 219.571 -9.26543 226.808C-9.46718 227.734 -9.67756 228.644 -9.89734 229.537C-10.5516 232.198 -11.2813 234.712 -12.0725 237.084C-12.7827 239.215 -13.5417 241.233 -14.3386 243.142C-14.8359 244.332 -15.347 245.478 -15.8701 246.584C-16.7895 248.527 -17.7463 250.344 -18.7266 252.041C-19.6811 253.696 -20.6594 255.239 -21.6451 256.674C-25.259 261.933 -28.9892 265.756 -32.1797 268.446C-36.404 259.762 -40.747 244.222 -35.7877 221.454C-32.8064 207.767 -27.5275 197.696 -22.1117 190.405C-20.9174 188.798 -19.717 187.325 -18.5324 185.98C-17.4422 184.74 -16.3654 183.607 -15.32 182.574C-15.0513 182.308 -14.7852 182.049 -14.5204 181.796C-14.3305 181.615 -14.1424 181.437 -13.9551 181.262C-13.9029 181.214 -13.8508 181.165 -13.7987 181.117L-13.7203 181.044L-13.6315 180.962C-13.5527 180.89 -13.4741 180.818 -13.3958 180.746ZM72.7165 28.2783C63.9478 30.5702 52.0486 35.0937 39.5684 43.9697C41.6704 52.6839 42.975 63.322 42.3541 75.8863C54.3422 65.878 65.9123 58.5017 76.6638 53.0817C76.4359 42.9792 74.6667 34.5744 72.7165 28.2783ZM-13.1059 90.4678C-3.26036 55.7822 14.456 37.8322 26.1035 29.3881C27.6315 32.5659 29.1955 36.4376 30.5649 41.0031C30.9542 42.3006 31.329 43.6605 31.6821 45.076C32.0209 46.4429 32.338 47.8584 32.6263 49.3294C34.4715 58.6062 35.2859 69.9714 33.7867 83.4321C33.5705 85.4373 33.2894 87.4912 32.965 89.5866C32.6191 91.7862 32.2083 94.0412 31.7398 96.3448L31.6798 96.6266C31.5266 97.346 31.3721 98.0716 31.2064 98.808C30.7956 100.661 30.3415 102.541 29.8442 104.456L29.8252 104.526L29.8005 104.619C29.78 104.696 29.7598 104.774 29.7396 104.851C29.7054 104.983 29.6712 105.115 29.6351 105.247C28.9648 107.758 28.2441 110.194 27.4873 112.546C24.0709 123.079 19.8184 131.988 15.2343 139.502C11.299 145.955 7.13296 151.374 3.05345 155.905C2.22458 156.772 1.43178 157.626 0.660566 158.472C0.525953 158.615 0.391294 158.752 0.256681 158.888L0.249678 158.895C-0.557573 159.735 -1.36479 160.533 -2.15764 161.296C-2.11426 161.148 -2.07088 160.993 -2.02751 160.838C-2.00601 160.762 -1.98451 160.685 -1.96301 160.609C-1.40082 158.535 -0.889116 156.321 -0.471071 153.955C-0.35576 153.31 -0.247591 152.651 -0.146684 151.985C0.278563 149.133 0.574095 146.08 0.682204 142.833C0.696624 142.326 0.710982 141.82 0.7182 141.299C0.754241 138.906 0.689406 136.401 0.494811 133.799L0.49472 133.789L0.49446 133.779L0.493728 133.762C0.493087 133.75 0.492232 133.737 0.491378 133.724C0.489516 133.697 0.487594 133.668 0.487594 133.639C0.321822 131.363 0.0551447 129.011 -0.305222 126.576C-0.629578 124.459 -1.02602 122.288 -1.50893 120.054C-2.7126 114.544 -4.21178 109.576 -5.91277 105.108C-6.61911 103.248 -7.36154 101.486 -8.12555 99.8001C-8.87515 98.1488 -9.65355 96.5876 -10.4464 95.0888C-11.3113 93.4652 -12.1978 91.9249 -13.1059 90.4678ZM-35.7883 126.972C-32.8043 140.662 -27.5283 150.736 -22.1154 158.022C-20.9189 159.632 -19.7153 161.103 -18.5332 162.449C-17.4449 163.691 -16.3638 164.822 -15.3187 165.855L-15.3118 165.862C-15.0474 166.124 -14.783 166.385 -14.5186 166.633C-14.3312 166.813 -14.1438 166.993 -13.9564 167.167L-13.9456 167.177L-13.9454 167.177C-13.7617 167.347 -13.5779 167.517 -13.3942 167.68C-13.3423 167.73 -13.2892 167.779 -13.2359 167.827C-13.1999 167.86 -13.1639 167.892 -13.128 167.924L-13.1273 167.925C-13.0837 167.964 -13.0403 168.002 -12.9977 168.041C-12.522 166.979 -12.0464 165.828 -11.5779 164.6C-11.2391 163.711 -10.9148 162.789 -10.5976 161.817C-9.47325 158.397 -8.493 154.442 -7.88036 149.966C-7.51277 147.267 -7.27498 144.374 -7.22453 141.286C-7.12363 135.416 -7.69299 128.859 -9.26425 121.622C-9.46606 120.693 -9.67509 119.784 -9.89853 118.889C-10.5544 116.231 -11.2824 113.719 -12.0752 111.346C-12.7816 109.216 -13.5384 107.197 -14.3384 105.289C-14.8358 104.096 -15.3475 102.951 -15.8737 101.848C-16.789 99.9049 -17.7476 98.0871 -18.7278 96.3871C-19.6792 94.7357 -20.6594 93.1883 -21.6469 91.7521C-25.2579 86.4927 -28.9915 82.6765 -32.1773 79.9844C-36.4009 88.6645 -40.7471 104.207 -35.7883 126.972ZM102.072 222.049C98.7779 222.049 95.5489 221.973 92.3992 221.82C98.5401 228.072 103.816 234.226 108.342 240.221C120.343 242.185 131.198 242.816 140.885 242.581C142.413 242.546 143.912 242.483 145.382 242.407C146.874 242.324 148.337 242.227 149.765 242.109C164.958 240.839 176.743 237.474 184.988 234.227C180.779 227.885 174.4 219.961 165.023 211.725C155.696 215.09 145.202 217.873 133.461 219.704C131.926 219.94 130.362 220.162 128.776 220.37C127.183 220.579 125.561 220.766 123.925 220.939C117.035 221.661 109.755 222.049 102.072 222.049ZM0.718197 207.126C0.710979 206.612 0.696621 206.099 0.682201 205.592C0.574093 202.352 0.278561 199.299 -0.146686 196.447C-0.247593 195.774 -0.355762 195.122 -0.471073 194.47C-0.896335 192.09 -1.40804 189.856 -1.97745 187.774C-2.04198 187.56 -2.0994 187.346 -2.15677 187.132L-2.15764 187.129C-1.40804 187.85 -0.651233 188.607 0.112774 189.391C0.292966 189.571 0.480374 189.766 0.660565 189.953C1.43177 190.799 2.22458 191.66 3.05345 192.52C7.13296 197.051 11.299 202.477 15.2343 208.923C19.8184 216.437 24.0709 225.346 27.4873 235.886C28.2441 238.238 28.9648 240.666 29.6351 243.185C29.7072 243.449 29.7721 243.713 29.8442 243.976C30.3415 245.891 30.7956 247.771 31.2064 249.624C31.3935 250.448 31.5662 251.266 31.7389 252.083L31.7398 252.087C32.2083 254.391 32.6191 256.639 32.965 258.845C33.2894 260.941 33.5705 262.988 33.7867 264.993C35.2859 278.454 34.4714 289.819 32.6263 299.096C32.338 300.567 32.0209 301.982 31.6821 303.349C31.329 304.764 30.9541 306.124 30.5649 307.429C29.1955 311.994 27.6315 315.859 26.1035 319.037C14.456 310.593 -3.26037 292.643 -13.1059 257.957C-12.1978 256.507 -11.3113 254.967 -10.4464 253.336C-9.65356 251.844 -8.87516 250.276 -8.12556 248.632C-7.36155 246.946 -6.61912 245.176 -5.91277 243.324C-4.21178 238.855 -2.71261 233.888 -1.50893 228.371C-1.02602 226.137 -0.629582 223.965 -0.305226 221.849C0.0551407 219.421 0.321819 217.062 0.48759 214.786C0.48759 214.771 0.488109 214.757 0.488857 214.743L0.489757 214.727L0.491191 214.706C0.492992 214.68 0.494808 214.654 0.494808 214.626C0.689403 212.024 0.754238 209.526 0.718197 207.126ZM16.9281 185.935C12.7693 185.248 8.89164 184.429 5.30226 183.548C5.37433 183.617 5.43922 183.687 5.5113 183.756C5.65049 183.899 5.79054 184.043 5.9311 184.187L5.93161 184.188L5.93211 184.188L5.93261 184.189C6.19926 184.462 6.46791 184.737 6.73657 185.019C9.54753 187.954 12.4306 191.284 15.2776 195.045C17.0291 197.355 18.7661 199.825 20.4671 202.469C20.7626 202.927 21.0581 203.392 21.3536 203.864C22.9825 206.473 24.5826 209.255 26.125 212.204C27.2711 214.396 28.3882 216.686 29.4622 219.073C32.5398 225.914 35.3004 233.567 37.5275 242.116C37.8158 243.226 38.0969 244.329 38.3564 245.425C38.8321 247.417 39.2645 249.373 39.6537 251.295C40.0285 253.155 40.3601 254.987 40.6556 256.791C40.9079 258.338 41.1385 259.871 41.3331 261.377C53.586 272.458 65.4426 280.59 76.4631 286.543C77.8469 287.292 79.2091 288 80.5641 288.68C81.9264 289.36 83.2742 290.012 84.6076 290.63C101.87 298.644 116.595 301.35 126.823 302.065C126.296 297.672 125.316 292.42 123.579 286.495C123.204 285.232 122.801 283.934 122.361 282.609C121.929 281.332 121.467 280.021 120.97 278.696C117.431 269.266 112.004 258.574 103.751 247.188C102.663 245.682 101.524 244.169 100.342 242.643C99.1238 241.082 97.848 239.507 96.5218 237.925C91.8296 232.333 86.4455 226.622 80.2542 220.842C80.1136 220.714 79.9749 220.584 79.8362 220.454C79.6974 220.324 79.5587 220.194 79.4182 220.065C78.0343 218.789 76.6504 217.546 75.2738 216.346C73.3421 214.667 71.4177 213.064 69.5005 211.524C55.1285 199.999 41.1962 192.429 28.6477 187.44C27.8909 187.371 27.1341 187.295 26.3917 187.218C23.0906 186.871 19.9337 186.434 16.9281 185.935ZM29.4622 129.357C32.5398 122.516 35.3004 114.862 37.5275 106.307C37.8158 105.197 38.097 104.094 38.3564 103.005C38.8321 101.013 39.2645 99.0565 39.6537 97.1276C40.0286 95.2681 40.3601 93.4364 40.6556 91.6393C40.9079 90.0851 41.1385 88.5586 41.3331 87.046C53.586 75.9721 65.4426 67.8332 76.4631 61.88C77.8469 61.1375 79.2091 60.423 80.5642 59.743C81.9264 59.063 83.2742 58.4108 84.6076 57.7932C101.87 49.7862 116.595 47.0802 126.823 46.3586C126.296 50.7576 125.316 56.01 123.579 61.9286C123.204 63.1914 122.801 64.489 122.361 65.8142C121.929 67.0978 121.467 68.4022 120.97 69.7344C117.431 79.1569 112.004 89.8493 103.751 101.242C102.663 102.741 101.524 104.253 100.342 105.78C99.1238 107.341 97.848 108.916 96.5218 110.505C91.8441 116.077 86.4672 121.78 80.2975 127.539C80.002 127.817 79.7137 128.087 79.4182 128.358C78.0487 129.621 76.6792 130.849 75.3242 132.035C73.3926 133.714 71.4753 135.317 69.5581 136.858C55.1645 148.41 41.2106 155.994 28.6477 160.983C27.0981 161.6 25.5629 162.183 24.0565 162.717C17.9877 164.896 12.2865 166.471 7.07539 167.616C6.95286 167.63 6.83034 167.637 6.71501 167.651C5.07889 167.783 3.48601 167.942 1.95079 168.116C3.05356 167.103 4.17067 166.02 5.30226 164.882L5.6483 164.528L5.6849 164.491C6.03355 164.135 6.38838 163.773 6.73657 163.411C9.56915 160.449 12.4666 157.097 15.3281 153.309C17.0723 151.005 18.8094 148.542 20.5032 145.898L20.6635 145.65L20.6644 145.648L20.6662 145.645C20.895 145.29 21.1266 144.931 21.3536 144.566C22.9825 141.951 24.5826 139.168 26.1251 136.219C27.2711 134.027 28.3882 131.744 29.4622 129.357ZM40.6485 164.161C37.8015 165.507 35.005 166.722 32.2733 167.825C31.6967 168.054 31.1201 168.283 30.5507 168.505C28.1145 169.448 25.7288 170.302 23.4008 171.072C20.5105 172.029 17.7068 172.855 15.0039 173.577C14.2902 173.765 13.5869 173.943 12.8895 174.119L12.51 174.215C11.0757 174.569 9.66302 174.895 8.29358 175.186C7.39262 175.381 6.50613 175.561 5.63402 175.735C7.77467 176.29 10.0378 176.817 12.4163 177.31C17.8725 178.441 23.9197 179.37 30.5507 179.926C32.158 180.057 33.8013 180.168 35.4807 180.259C41.7801 180.585 48.5481 180.557 55.7701 180.05C58.8982 179.828 62.1128 179.516 65.4067 179.1C67.951 178.781 70.5529 178.399 73.1981 177.948C78.748 177.011 84.5141 175.783 90.482 174.215C92.8172 173.598 95.1885 172.938 97.5887 172.217C97.6993 172.184 97.8099 172.151 97.9205 172.117C97.9867 172.097 98.0528 172.077 98.119 172.057C98.2954 172.003 98.4718 171.95 98.6482 171.898C100.472 171.336 102.266 170.767 104.025 170.191C127.587 162.385 145.13 152.387 158.089 142.409C159.322 141.458 160.518 140.508 161.664 139.557C162.839 138.593 163.971 137.635 165.059 136.678C174.415 128.449 180.786 120.532 184.988 114.204C176.743 110.957 164.958 107.584 149.765 106.315C148.337 106.197 146.874 106.1 145.382 106.016C143.912 105.94 142.413 105.878 140.885 105.843C131.198 105.607 120.343 106.245 108.342 108.209C103.823 114.19 98.5617 120.331 92.4352 126.568C91.109 127.921 89.7396 129.274 88.3269 130.634C87.2097 131.71 86.0709 132.785 84.8961 133.868C84.7204 134.03 84.5429 134.192 84.3654 134.354L84.3652 134.354L84.3627 134.357C84.1843 134.52 84.006 134.683 83.8294 134.846C71.6125 145.968 59.5542 154.218 48.1661 160.359C45.6218 161.726 43.1136 162.996 40.6485 164.161ZM145.129 98.7681C135.944 98.3145 125.7 98.6044 114.417 100.026C121.596 89.1172 126.345 78.9128 129.471 69.8944C139.492 69.9375 147.979 71.217 154.534 72.7336C153.039 79.805 150.259 88.8364 145.129 98.7681Z" fill="#F3EBE1"/>
</g>
<defs>
<clipPath id="clip0_192_1129">
<rect width="211" height="292" fill="white" transform="translate(0 28)"/>
</clipPath>
</defs>
</svg>
