<svg width="280" height="320" viewBox="0 0 280 320" fill="none" xmlns="http://www.w3.org/2000/svg">
<rect width="280" height="320" rx="12" fill="#2F4C96"/>
<g clip-path="url(#clip0_192_1207)">
<path fill-rule="evenodd" clip-rule="evenodd" d="M240.113 144.875C240.631 146.175 241.136 147.494 241.622 148.848C242.114 150.195 242.593 151.569 243.052 152.97C245.913 161.677 248.209 171.452 249.587 182.356C249.784 183.928 249.968 185.513 250.125 187.125C250.289 188.764 250.427 190.424 250.545 192.111C250.86 196.505 251.024 201.07 251.024 205.804C251.024 211.817 250.729 217.572 250.184 223.062C239.693 234.578 231.898 245.945 226.098 256.679C225.921 249.598 225.278 242.027 224.011 233.986C223.677 231.877 223.303 229.748 222.883 227.578C222.515 225.667 222.109 223.735 221.669 221.769C220.58 216.919 219.261 211.919 217.686 206.777C217.398 205.831 217.102 204.892 216.807 203.961C216.19 202.042 215.56 200.158 214.917 198.315C214.294 196.512 213.651 194.75 213.002 193.022C205.082 172.064 195.378 156.426 185.858 144.848C193.829 124.842 204.642 111.272 212.982 103C221.321 111.278 232.147 124.849 240.113 144.875ZM284.742 165.168C285.171 173.836 284.897 183.504 283.553 194.153C293.869 187.378 303.518 182.895 312.046 179.945C312.005 170.488 310.796 162.478 309.361 156.291C302.675 157.702 294.134 160.326 284.742 165.168ZM351 233.508C345.046 231.668 337.098 229.998 327.545 229.783C322.42 239.93 315.445 250.85 305.98 262.164C317.862 261.578 327.921 262.809 336.162 264.793C344.555 253.014 348.833 241.784 351 233.508ZM219.179 314.779C219.063 314.654 218.95 314.528 218.838 314.405C219.845 313.954 220.931 313.502 222.096 313.062C222.933 312.746 223.808 312.435 224.724 312.135C227.96 311.078 231.698 310.153 235.932 309.575C238.487 309.225 241.223 309.003 244.138 308.953C249.69 308.859 255.892 309.393 262.735 310.881C263.611 311.071 264.472 311.27 265.317 311.477C267.833 312.095 270.21 312.784 272.453 313.53C274.469 314.201 276.376 314.917 278.182 315.669C279.307 316.138 280.391 316.621 281.437 317.114C283.274 317.982 284.992 318.885 286.597 319.81C288.162 320.711 289.621 321.634 290.978 322.565C295.951 325.975 299.566 329.496 302.11 332.507C293.898 336.494 279.203 340.593 257.673 335.912C244.73 333.098 235.206 328.116 228.312 323.005C226.792 321.878 225.399 320.745 224.127 319.627C222.955 318.598 221.884 317.582 220.906 316.595C220.655 316.342 220.41 316.09 220.171 315.841C220 315.661 219.831 315.484 219.666 315.307C219.5 315.13 219.338 314.954 219.179 314.779ZM75 233.508C77.1673 241.784 81.4449 253.014 89.8383 264.793C98.0787 262.809 108.138 261.578 120.02 262.164C110.555 250.85 103.58 239.93 98.4548 229.783C88.9016 229.998 80.9537 231.668 75 233.508ZM133.808 314.505C101.008 305.213 84.0338 288.493 76.0487 277.501C79.0538 276.058 82.715 274.582 87.0323 273.29C88.2593 272.923 89.5452 272.569 90.8837 272.236C92.1763 271.916 93.5148 271.617 94.9058 271.344C103.678 269.603 114.426 268.834 127.154 270.249C129.051 270.453 130.993 270.719 132.974 271.025C135.054 271.351 137.187 271.739 139.365 272.181L139.634 272.238C140.313 272.383 140.999 272.528 141.694 272.684C143.446 273.072 145.224 273.501 147.035 273.97C147.113 273.992 147.192 274.012 147.27 274.033L147.409 274.069L147.409 274.069L147.41 274.069C147.534 274.101 147.659 274.133 147.783 274.167C150.158 274.8 152.461 275.48 154.686 276.195C164.646 279.419 173.07 283.432 180.176 287.759C186.278 291.473 191.402 295.404 195.687 299.255C196.507 300.037 197.314 300.785 198.115 301.513C198.25 301.64 198.378 301.766 198.507 301.893L198.515 301.901C199.309 302.663 200.063 303.424 200.785 304.173C200.575 304.111 200.352 304.05 200.135 303.989C198.174 303.458 196.081 302.975 193.843 302.581C193.233 302.472 192.61 302.37 191.98 302.275C189.283 301.873 186.396 301.594 183.326 301.492C182.847 301.479 182.368 301.465 181.876 301.458C179.612 301.424 177.243 301.486 174.783 301.669C174.761 301.669 174.737 301.671 174.712 301.673C174.686 301.674 174.659 301.676 174.632 301.676C172.48 301.833 170.255 302.084 167.952 302.424C165.951 302.73 163.898 303.105 161.785 303.56C156.575 304.696 151.877 306.111 147.652 307.717C145.893 308.383 144.227 309.084 142.633 309.805C141.071 310.512 139.595 311.247 138.177 311.995C136.642 312.812 135.186 313.648 133.808 314.505ZM168.327 335.913C181.272 333.097 190.799 328.117 197.688 323.009C199.21 321.88 200.602 320.744 201.874 319.628C203.049 318.601 204.118 317.581 205.096 316.594L205.102 316.588C205.349 316.339 205.597 316.089 205.831 315.839C206.001 315.662 206.172 315.485 206.336 315.309L206.344 315.3L206.344 315.3C206.505 315.126 206.667 314.952 206.822 314.778C206.94 314.656 207.051 314.526 207.163 314.404C206.159 313.955 205.07 313.506 203.908 313.064C203.068 312.744 202.196 312.438 201.277 312.139C198.043 311.077 194.303 310.152 190.071 309.574C187.518 309.227 184.782 309.003 181.863 308.955C176.312 308.86 170.111 309.397 163.268 310.88C162.389 311.071 161.529 311.268 160.683 311.479C158.17 312.098 155.794 312.785 153.551 313.533C151.536 314.2 149.627 314.914 147.823 315.669C146.694 316.138 145.611 316.621 144.568 317.118C142.731 317.982 141.012 318.887 139.405 319.812C137.843 320.71 136.38 321.635 135.021 322.567C130.048 325.975 126.439 329.498 123.894 332.505C132.102 336.491 146.799 340.593 168.327 335.913ZM258.235 205.804C258.235 208.912 258.163 211.96 258.019 214.932C263.93 209.137 269.75 204.157 275.419 199.886C277.276 188.56 277.873 178.315 277.65 169.173C277.617 167.731 277.558 166.316 277.486 164.928C277.407 163.52 277.315 162.139 277.204 160.792C276.003 146.453 272.821 135.331 269.75 127.549C263.753 131.522 256.26 137.542 248.472 146.392C251.654 155.194 254.285 165.098 256.018 176.179C256.241 177.628 256.451 179.104 256.647 180.601C256.844 182.104 257.021 183.635 257.185 185.179C257.868 191.682 258.235 198.552 258.235 205.804ZM244.122 301.459C243.637 301.465 243.151 301.479 242.672 301.492C239.608 301.594 236.721 301.873 234.024 302.275C233.388 302.37 232.771 302.472 232.154 302.581C229.904 302.982 227.791 303.465 225.823 304.003C225.62 304.064 225.417 304.118 225.215 304.172L225.215 304.172L225.214 304.172L225.214 304.172L225.214 304.172L225.213 304.173C225.895 303.465 226.61 302.751 227.351 302.03C227.522 301.86 227.706 301.683 227.883 301.513C228.683 300.785 229.497 300.037 230.311 299.255C234.595 295.404 239.726 291.473 245.822 287.759C252.927 283.432 261.352 279.419 271.319 276.195C273.543 275.48 275.839 274.8 278.221 274.167L278.274 274.153L278.362 274.13C278.438 274.11 278.513 274.09 278.589 274.07L278.591 274.07L278.593 274.069L278.595 274.069L278.596 274.069C278.72 274.036 278.845 274.004 278.969 273.97C280.78 273.501 282.558 273.072 284.31 272.684C285.088 272.508 285.86 272.345 286.632 272.183L286.639 272.181C288.818 271.739 290.943 271.351 293.03 271.025C295.011 270.719 296.947 270.453 298.843 270.249C311.572 268.834 322.319 269.603 331.092 271.344C332.483 271.617 333.821 271.916 335.114 272.236C336.452 272.569 337.738 272.923 338.972 273.29C343.289 274.582 346.944 276.058 349.949 277.501C341.964 288.493 324.99 305.213 292.19 314.505C290.819 313.648 289.362 312.812 287.82 311.995C286.41 311.247 284.927 310.512 283.372 309.805C281.777 309.084 280.104 308.383 278.352 307.717C274.127 306.111 269.429 304.696 264.213 303.56C262.1 303.105 260.046 302.73 258.045 302.424C255.749 302.084 253.518 301.833 251.366 301.676C251.313 301.676 251.267 301.669 251.215 301.669C248.754 301.486 246.392 301.424 244.122 301.459ZM224.084 286.16C223.434 290.085 222.66 293.745 221.827 297.132C221.893 297.064 221.958 297.003 222.024 296.935C222.16 296.803 222.296 296.67 222.433 296.537C222.692 296.286 222.952 296.032 223.218 295.778C225.993 293.126 229.143 290.405 232.699 287.718C234.884 286.065 237.22 284.425 239.72 282.82C240.153 282.541 240.592 282.262 241.038 281.983C243.505 280.446 246.136 278.936 248.925 277.48C250.998 276.399 253.164 275.344 255.421 274.331C261.89 271.426 269.127 268.821 277.211 266.719C278.26 266.447 279.304 266.181 280.34 265.936C282.223 265.488 284.074 265.079 285.891 264.712C287.65 264.358 289.382 264.045 291.088 263.767C292.551 263.528 294.001 263.311 295.425 263.127C305.903 251.563 313.593 240.373 319.222 229.972C319.931 228.666 320.6 227.381 321.243 226.102C321.886 224.816 322.503 223.544 323.087 222.286C330.665 205.994 333.224 192.097 333.9 182.444C329.747 182.941 324.78 183.866 319.177 185.505C317.982 185.859 316.755 186.24 315.502 186.655C314.295 187.063 313.055 187.498 311.802 187.968C302.885 191.308 292.774 196.43 282.007 204.219C280.583 205.246 279.153 206.321 277.709 207.436C276.233 208.586 274.744 209.79 273.248 211.041C267.959 215.47 262.559 220.551 257.094 226.394C256.972 226.527 256.849 226.658 256.726 226.789C256.603 226.92 256.48 227.051 256.359 227.183C255.152 228.49 253.977 229.796 252.842 231.095C251.254 232.918 249.739 234.734 248.282 236.544C237.384 250.107 230.225 263.256 225.508 275.099C225.442 275.814 225.37 276.528 225.298 277.228C224.97 280.344 224.556 283.323 224.084 286.16ZM170.583 274.331C164.114 271.426 156.876 268.821 148.786 266.719C147.737 266.447 146.693 266.181 145.663 265.936C143.78 265.488 141.93 265.079 140.106 264.712C138.347 264.358 136.615 264.045 134.916 263.767C133.446 263.528 132.003 263.311 130.572 263.127C120.101 251.563 112.404 240.373 106.775 229.972C106.072 228.666 105.397 227.381 104.754 226.102C104.111 224.816 103.494 223.544 102.91 222.286C95.3383 205.994 92.7794 192.097 92.0971 182.444C96.2569 182.941 101.224 183.866 106.821 185.505C108.015 185.859 109.242 186.24 110.495 186.655C111.709 187.063 112.942 187.498 114.202 187.968C123.112 191.308 133.223 196.43 143.997 204.219C145.414 205.246 146.844 206.321 148.288 207.436C149.764 208.586 151.253 209.79 152.756 211.041C158.025 215.456 163.418 220.531 168.864 226.354C169.126 226.632 169.382 226.905 169.638 227.183C170.832 228.476 171.994 229.768 173.116 231.047C174.703 232.87 176.219 234.68 177.676 236.489C188.6 250.073 195.772 263.243 200.489 275.099C201.073 276.562 201.624 278.011 202.13 279.432C204.19 285.16 205.679 290.541 206.762 295.459C206.768 295.514 206.773 295.569 206.778 295.624C206.783 295.683 206.788 295.742 206.795 295.799C206.919 297.343 207.07 298.846 207.234 300.295C206.276 299.254 205.253 298.2 204.177 297.132L203.842 296.806L203.806 296.77C203.47 296.442 203.128 296.107 202.786 295.778C199.984 293.105 196.815 290.371 193.232 287.67C191.054 286.024 188.725 284.384 186.225 282.786L185.99 282.635C185.653 282.418 185.311 282.198 184.965 281.983C182.492 280.446 179.861 278.936 177.072 277.48C174.999 276.399 172.84 275.344 170.583 274.331ZM203.495 263.773C204.768 266.46 205.916 269.1 206.959 271.678C207.176 272.222 207.392 272.766 207.602 273.303C208.495 275.603 209.302 277.854 210.03 280.051C210.935 282.779 211.716 285.425 212.399 287.976C212.576 288.648 212.744 289.31 212.91 289.967L213.002 290.33C213.337 291.683 213.645 293.017 213.921 294.309C214.104 295.159 214.275 295.996 214.439 296.819C214.964 294.799 215.463 292.663 215.928 290.418C216.998 285.269 217.877 279.562 218.402 273.303C218.527 271.787 218.632 270.236 218.717 268.651C219.025 262.705 218.999 256.318 218.52 249.502C218.31 246.55 218.015 243.516 217.621 240.407C217.319 238.006 216.958 235.55 216.532 233.054C215.646 227.816 214.485 222.374 213.002 216.742C212.418 214.538 211.795 212.3 211.112 210.035C211.063 209.868 211.012 209.701 210.961 209.535L210.961 209.534L210.961 209.533C210.91 209.367 210.86 209.201 210.811 209.035C210.279 207.314 209.741 205.62 209.197 203.96C201.815 181.723 192.36 165.166 182.925 152.936C182.026 151.772 181.127 150.643 180.229 149.562C179.317 148.453 178.411 147.385 177.506 146.358C169.724 137.528 162.238 131.515 156.254 127.549C153.183 135.331 149.994 146.453 148.793 160.792C148.682 162.139 148.59 163.52 148.511 164.928C148.439 166.316 148.38 167.731 148.347 169.173C148.124 178.315 148.728 188.56 150.585 199.886C156.24 204.151 162.047 209.116 167.946 214.898C169.225 216.15 170.505 217.442 171.791 218.776C172.808 219.83 173.825 220.905 174.848 222.014C175.002 222.18 175.156 222.348 175.311 222.517C175.465 222.685 175.619 222.854 175.773 223.02C186.291 234.55 194.093 245.931 199.899 256.678C201.192 259.08 202.393 261.447 203.495 263.773ZM141.657 165.168C141.228 173.836 141.502 183.504 142.846 194.153C132.531 187.378 122.881 182.895 114.353 179.945C114.394 170.488 115.604 162.478 117.038 156.291C123.725 157.702 132.265 160.326 141.657 165.168Z" fill="white" fill-opacity="0.2"/>
</g>
<defs>
<clipPath id="clip0_192_1207">
<rect x="75" y="103" width="205" height="217" rx="12" fill="white"/>
</clipPath>
</defs>
</svg>
