<svg width="299" height="114" viewBox="0 0 299 114" fill="none" xmlns="http://www.w3.org/2000/svg">
<path d="M63.1983 42.8716V55H61.2089V42.8716H63.1983ZM83.6276 55H81.6382L75.6525 45.943V55H73.6631V42.8542H75.6525L81.6382 51.8937V42.8542H83.6276V55ZM98.0892 55.1222C97.2748 55.1222 96.5419 54.9825 95.8904 54.7033C95.2389 54.4125 94.727 54.0053 94.3547 53.4818C93.9824 52.9582 93.7963 52.3475 93.7963 51.6494H95.9253C95.9718 52.173 96.1754 52.6034 96.5361 52.9408C96.9084 53.2782 97.4261 53.4469 98.0892 53.4469C98.7756 53.4469 99.3108 53.284 99.6947 52.9582C100.079 52.6209 100.271 52.1904 100.271 51.6669C100.271 51.2597 100.148 50.9281 99.9041 50.6722C99.6714 50.4162 99.3748 50.2185 99.0141 50.0788C98.6651 49.9392 98.1765 49.788 97.5482 49.6251C96.7571 49.4157 96.1115 49.2063 95.6112 48.9969C95.1226 48.7758 94.7037 48.4385 94.3547 47.9847C94.0057 47.531 93.8312 46.926 93.8312 46.1698C93.8312 45.4718 94.0057 44.861 94.3547 44.3375C94.7037 43.814 95.1924 43.4126 95.8206 43.1334C96.4488 42.8542 97.176 42.7146 98.002 42.7146C99.177 42.7146 100.137 43.0112 100.881 43.6046C101.638 44.1863 102.056 44.989 102.138 46.0128H99.939C99.9041 45.5707 99.6947 45.1926 99.3108 44.8785C98.9269 44.5644 98.4208 44.4073 97.7926 44.4073C97.2225 44.4073 96.7571 44.5527 96.3965 44.8436C96.0358 45.1344 95.8555 45.5532 95.8555 46.1C95.8555 46.4723 95.966 46.7806 96.1871 47.0249C96.4198 47.2576 96.7106 47.4438 97.0596 47.5834C97.4086 47.723 97.8856 47.8742 98.4906 48.0371C99.2933 48.2581 99.9448 48.4792 100.445 48.7002C100.957 48.9213 101.387 49.2645 101.736 49.7298C102.097 50.1835 102.277 50.7943 102.277 51.5622C102.277 52.1788 102.109 52.7605 101.771 53.3073C101.446 53.8541 100.963 54.2961 100.323 54.6335C99.6947 54.9593 98.9501 55.1222 98.0892 55.1222ZM114.467 42.8716V55H112.478V42.8716H114.467ZM128.893 42.8716C130.185 42.8716 131.313 43.1217 132.279 43.622C133.256 44.1106 134.006 44.8203 134.53 45.751C135.065 46.6701 135.333 47.7462 135.333 48.9794C135.333 50.2126 135.065 51.283 134.53 52.1904C134.006 53.0979 133.256 53.7959 132.279 54.2845C131.313 54.7615 130.185 55 128.893 55H124.932V42.8716H128.893ZM128.893 53.3771C130.313 53.3771 131.4 52.9931 132.157 52.2253C132.913 51.4575 133.291 50.3755 133.291 48.9794C133.291 47.5717 132.913 46.4723 132.157 45.6812C131.4 44.8901 130.313 44.4946 128.893 44.4946H126.921V53.3771H128.893ZM147.147 44.4771V48.0371H151.335V49.66H147.147V53.3771H151.858V55H145.157V42.8542H151.858V44.4771H147.147ZM40.4827 81.1222C39.3542 81.1222 38.313 80.8604 37.359 80.3369C36.4166 79.8017 35.6662 79.0629 35.1078 78.1206C34.561 77.1666 34.2876 76.0963 34.2876 74.9096C34.2876 73.723 34.561 72.6585 35.1078 71.7161C35.6662 70.7738 36.4166 70.0408 37.359 69.5173C38.313 68.9821 39.3542 68.7146 40.4827 68.7146C41.6228 68.7146 42.664 68.9821 43.6064 69.5173C44.5604 70.0408 45.3108 70.7738 45.8576 71.7161C46.4044 72.6585 46.6778 73.723 46.6778 74.9096C46.6778 76.0963 46.4044 77.1666 45.8576 78.1206C45.3108 79.0629 44.5604 79.8017 43.6064 80.3369C42.664 80.8604 41.6228 81.1222 40.4827 81.1222ZM40.4827 79.3945C41.2854 79.3945 42.0009 79.2142 42.6291 78.8535C43.2574 78.4813 43.746 77.9577 44.095 77.283C44.4557 76.5966 44.636 75.8054 44.636 74.9096C44.636 74.0138 44.4557 73.2285 44.095 72.5538C43.746 71.879 43.2574 71.3613 42.6291 71.0006C42.0009 70.64 41.2854 70.4597 40.4827 70.4597C39.6799 70.4597 38.9645 70.64 38.3362 71.0006C37.708 71.3613 37.2135 71.879 36.8529 72.5538C36.5039 73.2285 36.3294 74.0138 36.3294 74.9096C36.3294 75.8054 36.5039 76.5966 36.8529 77.283C37.2135 77.9577 37.708 78.4813 38.3362 78.8535C38.9645 79.2142 39.6799 79.3945 40.4827 79.3945ZM58.4603 68.8716V76.6024C58.4603 77.5215 58.6988 78.2137 59.1757 78.679C59.6644 79.1444 60.3391 79.3771 61.2 79.3771C62.0726 79.3771 62.7474 79.1444 63.2244 78.679C63.713 78.2137 63.9573 77.5215 63.9573 76.6024V68.8716H65.9467V76.5675C65.9467 77.5564 65.7315 78.394 65.301 79.0804C64.8706 79.7668 64.2947 80.2787 63.5734 80.6161C62.8521 80.9535 62.0551 81.1222 61.1826 81.1222C60.3101 81.1222 59.5131 80.9535 58.7918 80.6161C58.0822 80.2787 57.5179 79.7668 57.0991 79.0804C56.6803 78.394 56.4709 77.5564 56.4709 76.5675V68.8716H58.4603ZM84.2253 68.8716V70.4946H80.9969V81H79.0075V70.4946H75.7616V68.8716H84.2253ZM98.0892 81.1222C97.2748 81.1222 96.5419 80.9825 95.8904 80.7033C95.2389 80.4125 94.727 80.0053 94.3547 79.4818C93.9824 78.9582 93.7963 78.3475 93.7963 77.6494H95.9253C95.9718 78.173 96.1754 78.6034 96.5361 78.9408C96.9084 79.2782 97.4261 79.4469 98.0892 79.4469C98.7756 79.4469 99.3108 79.284 99.6947 78.9582C100.079 78.6209 100.271 78.1904 100.271 77.6669C100.271 77.2597 100.148 76.9281 99.9041 76.6722C99.6714 76.4162 99.3748 76.2185 99.0141 76.0788C98.6651 75.9392 98.1765 75.788 97.5482 75.6251C96.7571 75.4157 96.1114 75.2063 95.6112 74.9969C95.1226 74.7758 94.7037 74.4385 94.3547 73.9847C94.0057 73.531 93.8312 72.926 93.8312 72.1698C93.8312 71.4718 94.0057 70.861 94.3547 70.3375C94.7037 69.814 95.1924 69.4126 95.8206 69.1334C96.4488 68.8542 97.176 68.7146 98.002 68.7146C99.177 68.7146 100.137 69.0112 100.881 69.6046C101.638 70.1863 102.056 70.989 102.138 72.0128H99.939C99.9041 71.5707 99.6947 71.1926 99.3108 70.8785C98.9269 70.5644 98.4208 70.4073 97.7926 70.4073C97.2225 70.4073 96.7571 70.5527 96.3965 70.8436C96.0358 71.1344 95.8555 71.5532 95.8555 72.1C95.8555 72.4723 95.966 72.7806 96.1871 73.0249C96.4197 73.2576 96.7106 73.4438 97.0596 73.5834C97.4086 73.723 97.8856 73.8742 98.4906 74.0371C99.2933 74.2581 99.9448 74.4792 100.445 74.7002C100.957 74.9213 101.387 75.2645 101.736 75.7298C102.097 76.1835 102.277 76.7943 102.277 77.5622C102.277 78.1788 102.109 78.7605 101.771 79.3073C101.446 79.8541 100.963 80.2961 100.323 80.6335C99.6947 80.9593 98.9501 81.1222 98.0892 81.1222ZM114.467 68.8716V81H112.478V68.8716H114.467ZM128.893 68.8716C130.185 68.8716 131.313 69.1217 132.279 69.622C133.256 70.1106 134.006 70.8203 134.53 71.751C135.065 72.6701 135.333 73.7462 135.333 74.9794C135.333 76.2126 135.065 77.283 134.53 78.1904C134.006 79.0979 133.256 79.7959 132.279 80.2845C131.313 80.7615 130.185 81 128.893 81H124.932V68.8716H128.893ZM128.893 79.3771C130.313 79.3771 131.4 78.9931 132.157 78.2253C132.913 77.4575 133.291 76.3755 133.291 74.9794C133.291 73.5717 132.913 72.4723 132.157 71.6812C131.4 70.8901 130.313 70.4946 128.893 70.4946H126.921V79.3771H128.893ZM147.147 70.4771V74.0371H151.335V75.66H147.147V79.3771H151.858V81H145.157V68.8542H151.858V70.4771H147.147ZM10.1594 98.3618C9.84531 97.7568 9.40903 97.3031 8.85061 97.0006C8.29218 96.6865 7.64649 96.5295 6.91356 96.5295C6.11081 96.5295 5.39533 96.7098 4.76709 97.0704C4.13886 97.4311 3.64442 97.943 3.28377 98.6061C2.93475 99.2692 2.76024 100.037 2.76024 100.91C2.76024 101.782 2.93475 102.556 3.28377 103.231C3.64442 103.894 4.13886 104.406 4.76709 104.766C5.39533 105.127 6.11081 105.307 6.91356 105.307C7.99551 105.307 8.87387 105.005 9.54864 104.4C10.2234 103.795 10.6364 102.975 10.7877 101.939H6.23297V100.351H12.9167V101.904C12.7887 102.847 12.4513 103.713 11.9045 104.505C11.3694 105.296 10.6655 105.93 9.79296 106.407C8.93204 106.872 7.97224 107.105 6.91356 107.105C5.77343 107.105 4.73219 106.843 3.78984 106.319C2.84749 105.784 2.0971 105.045 1.53868 104.103C0.991881 103.161 0.718483 102.096 0.718483 100.91C0.718483 99.723 0.991881 98.6585 1.53868 97.7161C2.0971 96.7738 2.84749 96.0408 3.78984 95.5173C4.74383 94.9821 5.78506 94.7146 6.91356 94.7146C8.20492 94.7146 9.35087 95.0345 10.3514 95.6744C11.3635 96.3026 12.0965 97.1984 12.5502 98.3618H10.1594ZM29.0315 107L26.2393 102.149H24.7211V107H22.7317V94.8716H26.9199C27.8506 94.8716 28.6359 95.0345 29.2758 95.3602C29.9273 95.686 30.4101 96.1223 30.7242 96.6691C31.05 97.2159 31.2129 97.8266 31.2129 98.5014C31.2129 99.2925 30.9802 100.014 30.5148 100.665C30.0611 101.305 29.3572 101.741 28.4033 101.974L31.4048 107H29.0315ZM24.7211 100.561H26.9199C27.6645 100.561 28.2229 100.374 28.5952 100.002C28.9791 99.6299 29.1711 99.1296 29.1711 98.5014C29.1711 97.8732 28.985 97.3846 28.6127 97.0355C28.2404 96.6749 27.6761 96.4946 26.9199 96.4946H24.7211V100.561ZM47.1427 107.122C46.0142 107.122 44.9729 106.86 44.019 106.337C43.0766 105.802 42.3262 105.063 41.7678 104.121C41.221 103.167 40.9476 102.096 40.9476 100.91C40.9476 99.723 41.221 98.6585 41.7678 97.7161C42.3262 96.7738 43.0766 96.0408 44.019 95.5173C44.9729 94.9821 46.0142 94.7146 47.1427 94.7146C48.2828 94.7146 49.324 94.9821 50.2664 95.5173C51.2204 96.0408 51.9708 96.7738 52.5175 97.7161C53.0643 98.6585 53.3377 99.723 53.3377 100.91C53.3377 102.096 53.0643 103.167 52.5175 104.121C51.9708 105.063 51.2204 105.802 50.2664 106.337C49.324 106.86 48.2828 107.122 47.1427 107.122ZM47.1427 105.395C47.9454 105.395 48.6609 105.214 49.2891 104.854C49.9174 104.481 50.406 103.958 50.755 103.283C51.1157 102.597 51.296 101.805 51.296 100.91C51.296 100.014 51.1157 99.2285 50.755 98.5538C50.406 97.879 49.9174 97.3613 49.2891 97.0006C48.6609 96.64 47.9454 96.4597 47.1427 96.4597C46.3399 96.4597 45.6244 96.64 44.9962 97.0006C44.368 97.3613 43.8735 97.879 43.5129 98.5538C43.1639 99.2285 42.9894 100.014 42.9894 100.91C42.9894 101.805 43.1639 102.597 43.5129 103.283C43.8735 103.958 44.368 104.481 44.9962 104.854C45.6244 105.214 46.3399 105.395 47.1427 105.395ZM68.6802 107.122C67.5517 107.122 66.5105 106.86 65.5565 106.337C64.6142 105.802 63.8638 105.063 63.3053 104.121C62.7585 103.167 62.4851 102.096 62.4851 100.91C62.4851 99.723 62.7585 98.6585 63.3053 97.7161C63.8638 96.7738 64.6142 96.0408 65.5565 95.5173C66.5105 94.9821 67.5517 94.7146 68.6802 94.7146C69.8203 94.7146 70.8616 94.9821 71.8039 95.5173C72.7579 96.0408 73.5083 96.7738 74.0551 97.7161C74.6019 98.6585 74.8753 99.723 74.8753 100.91C74.8753 102.096 74.6019 103.167 74.0551 104.121C73.5083 105.063 72.7579 105.802 71.8039 106.337C70.8616 106.86 69.8203 107.122 68.6802 107.122ZM68.6802 105.395C69.483 105.395 70.1985 105.214 70.8267 104.854C71.4549 104.481 71.9435 103.958 72.2926 103.283C72.6532 102.597 72.8335 101.805 72.8335 100.91C72.8335 100.014 72.6532 99.2285 72.2926 98.5538C71.9435 97.879 71.4549 97.3613 70.8267 97.0006C70.1985 96.64 69.483 96.4597 68.6802 96.4597C67.8775 96.4597 67.162 96.64 66.5338 97.0006C65.9055 97.3613 65.4111 97.879 65.0504 98.5538C64.7014 99.2285 64.5269 100.014 64.5269 100.91C64.5269 101.805 64.7014 102.597 65.0504 103.283C65.4111 103.958 65.9055 104.481 66.5338 104.854C67.162 105.214 67.8775 105.395 68.6802 105.395ZM97.4599 94.8716V107H95.4705V98.6934L91.7709 107H90.3923L86.6752 98.6934V107H84.6858V94.8716H86.8323L91.0903 104.382L95.3309 94.8716H97.4599ZM109.917 94.8716V107H107.928V94.8716H109.917ZM130.346 107H128.357L122.371 97.943V107H120.382V94.8542H122.371L128.357 103.894V94.8542H130.346V107ZM149.589 98.3618C149.275 97.7568 148.839 97.3031 148.281 97.0006C147.722 96.6865 147.077 96.5295 146.344 96.5295C145.541 96.5295 144.825 96.7098 144.197 97.0704C143.569 97.4311 143.074 97.943 142.714 98.6061C142.365 99.2692 142.19 100.037 142.19 100.91C142.19 101.782 142.365 102.556 142.714 103.231C143.074 103.894 143.569 104.406 144.197 104.766C144.825 105.127 145.541 105.307 146.344 105.307C147.426 105.307 148.304 105.005 148.979 104.4C149.653 103.795 150.066 102.975 150.218 101.939H145.663V100.351H152.347V101.904C152.219 102.847 151.881 103.713 151.335 104.505C150.799 105.296 150.096 105.93 149.223 106.407C148.362 106.872 147.402 107.105 146.344 107.105C145.203 107.105 144.162 106.843 143.22 106.319C142.278 105.784 141.527 105.045 140.969 104.103C140.422 103.161 140.149 102.096 140.149 100.91C140.149 99.723 140.422 98.6585 140.969 97.7161C141.527 96.7738 142.278 96.0408 143.22 95.5173C144.174 94.9821 145.215 94.7146 146.344 94.7146C147.635 94.7146 148.781 95.0345 149.781 95.6744C150.794 96.3026 151.526 97.1984 151.98 98.3618H149.589Z" fill="#919191"/>
<path fill-rule="evenodd" clip-rule="evenodd" d="M252.635 33.4411C252.85 33.9823 253.06 34.5319 253.262 35.0957C253.467 35.6567 253.666 36.229 253.857 36.8126C255.046 40.4391 256 44.5104 256.573 49.052C256.655 49.7065 256.731 50.3666 256.797 51.0381C256.865 51.7209 256.922 52.4122 256.971 53.1149C257.102 54.9451 257.17 56.8462 257.17 58.8181C257.17 61.3226 257.048 63.7195 256.821 66.0059C252.46 70.8025 249.22 75.5367 246.809 80.0075C246.735 77.0582 246.468 73.9048 245.942 70.556C245.803 69.6777 245.647 68.7909 245.473 67.8871C245.32 67.091 245.151 66.2864 244.968 65.4676C244.515 63.4475 243.967 61.3651 243.312 59.2232C243.192 58.8294 243.07 58.4384 242.947 58.0503C242.691 57.2513 242.429 56.4665 242.161 55.6987C241.902 54.9479 241.635 54.2141 241.365 53.4945C238.073 44.7654 234.039 38.2519 230.082 33.4298C233.396 25.0974 237.89 19.4452 241.357 16C244.823 19.448 249.324 25.1002 252.635 33.4411ZM271.187 41.893C271.365 45.5034 271.251 49.5302 270.692 53.9653C274.98 51.1434 278.991 49.2765 282.536 48.0479C282.52 44.1087 282.017 40.7726 281.42 38.1959C278.641 38.7834 275.091 39.8763 271.187 41.893ZM298.729 70.357C296.254 69.5904 292.95 68.895 288.979 68.8054C286.849 73.0316 283.949 77.5796 280.015 82.292C284.954 82.0479 289.135 82.5607 292.561 83.387C296.05 78.4812 297.828 73.8038 298.729 70.357ZM243.933 104.206C243.885 104.154 243.838 104.102 243.791 104.05C244.21 103.863 244.661 103.675 245.146 103.491C245.493 103.359 245.857 103.23 246.238 103.105C247.583 102.665 249.137 102.279 250.897 102.039C251.959 101.893 253.096 101.8 254.308 101.78C256.616 101.741 259.194 101.963 262.039 102.583C262.403 102.662 262.761 102.745 263.112 102.831C264.158 103.088 265.146 103.375 266.078 103.686C266.916 103.965 267.709 104.264 268.46 104.577C268.927 104.773 269.378 104.973 269.813 105.179C270.576 105.54 271.29 105.917 271.958 106.302C272.608 106.677 273.215 107.062 273.779 107.449C275.846 108.87 277.349 110.336 278.406 111.59C274.993 113.251 268.884 114.958 259.934 113.008C254.554 111.836 250.595 109.761 247.729 107.633C247.098 107.163 246.519 106.691 245.99 106.226C245.503 105.797 245.057 105.374 244.651 104.963C244.546 104.857 244.445 104.753 244.345 104.649C244.274 104.574 244.204 104.5 244.136 104.426C244.067 104.353 243.999 104.279 243.933 104.206ZM184 70.357C184.901 73.8038 186.679 78.4812 190.168 83.387C193.593 82.5607 197.775 82.0479 202.714 82.292C198.78 77.5796 195.88 73.0316 193.75 68.8054C189.779 68.895 186.475 69.5904 184 70.357ZM208.445 104.092C194.811 100.222 187.755 93.2583 184.436 88.6799C185.685 88.0792 187.207 87.4645 189.002 86.9261C189.512 86.7732 190.046 86.6258 190.603 86.487C191.14 86.3538 191.696 86.2292 192.275 86.1159C195.921 85.3906 200.389 85.0704 205.68 85.6597C206.468 85.7447 207.275 85.8552 208.099 85.9827C208.964 86.1187 209.85 86.2802 210.756 86.4643L210.867 86.488L210.868 86.4882C211.15 86.5483 211.435 86.609 211.724 86.674C212.452 86.8355 213.191 87.014 213.944 87.2095C213.996 87.2236 214.047 87.237 214.099 87.2505L214.099 87.2505L214.101 87.2509C214.152 87.2643 214.203 87.2776 214.255 87.2916C215.242 87.5551 216.199 87.8384 217.124 88.1359C221.264 89.4789 224.766 91.1504 227.72 92.9524C230.257 94.4993 232.387 96.1369 234.168 97.7405C234.509 98.0663 234.844 98.3779 235.177 98.6811C235.233 98.734 235.287 98.7869 235.34 98.8397L235.343 98.8426C235.673 99.1599 235.987 99.4772 236.287 99.7889C236.2 99.7634 236.107 99.7379 236.017 99.7124C235.201 99.4914 234.331 99.2902 233.401 99.1259C233.148 99.0806 232.889 99.038 232.627 98.9984C231.506 98.8312 230.306 98.7151 229.029 98.6726C228.83 98.6669 228.631 98.6612 228.427 98.6584C227.486 98.6442 226.501 98.6697 225.478 98.7462C225.469 98.7462 225.459 98.7469 225.449 98.7476C225.438 98.7483 225.427 98.7491 225.415 98.7491C224.521 98.8142 223.596 98.919 222.639 99.0607C221.807 99.1882 220.953 99.344 220.075 99.5339C217.91 100.007 215.957 100.596 214.2 101.265C213.469 101.543 212.777 101.834 212.114 102.135C211.465 102.429 210.851 102.735 210.262 103.047C209.624 103.387 209.018 103.735 208.445 104.092ZM222.794 113.009C228.176 111.836 232.136 109.762 235 107.634C235.632 107.164 236.211 106.69 236.74 106.226C237.228 105.798 237.672 105.373 238.079 104.962L238.081 104.96L238.081 104.96C238.184 104.856 238.287 104.752 238.384 104.648C238.455 104.574 238.526 104.5 238.594 104.427L238.599 104.422L238.677 104.338C238.717 104.294 238.757 104.25 238.796 104.206C238.819 104.182 238.841 104.158 238.862 104.134L238.892 104.101L238.892 104.101L238.918 104.072L238.938 104.05C238.521 103.863 238.068 103.676 237.585 103.492C237.236 103.359 236.873 103.231 236.491 103.106C235.147 102.665 233.592 102.279 231.833 102.038C230.772 101.894 229.635 101.8 228.421 101.781C226.114 101.741 223.536 101.965 220.692 102.582C220.326 102.662 219.969 102.744 219.617 102.832C218.572 103.09 217.585 103.376 216.652 103.687C215.815 103.965 215.021 104.262 214.271 104.577C213.802 104.772 213.352 104.974 212.918 105.18C212.155 105.54 211.44 105.917 210.772 106.302C210.123 106.676 209.515 107.062 208.95 107.45C206.883 108.869 205.383 110.337 204.324 111.589C207.736 113.249 213.846 114.958 222.794 113.009ZM260.168 58.818C260.168 60.1127 260.138 61.382 260.078 62.6201C262.535 60.2062 264.955 58.1323 267.311 56.3531C268.083 51.6358 268.331 47.369 268.238 43.5612C268.225 42.9606 268.2 42.3713 268.17 41.7933C268.138 41.2068 268.099 40.6317 268.053 40.0707C267.554 34.0983 266.231 29.4661 264.955 26.2249C262.462 27.8795 259.347 30.3868 256.11 34.0728C257.432 37.739 258.526 41.8641 259.246 46.4794C259.339 47.0829 259.426 47.6977 259.508 48.321C259.59 48.9471 259.663 49.5846 259.732 50.2277C260.015 52.9362 260.168 55.7978 260.168 58.818ZM254.301 98.6584C254.1 98.6612 253.898 98.6669 253.699 98.6726C252.425 98.7151 251.225 98.8312 250.104 98.9984C249.839 99.038 249.583 99.0806 249.327 99.1259C248.391 99.2931 247.513 99.4942 246.695 99.718C246.611 99.7434 246.526 99.766 246.442 99.7885L246.441 99.7889C246.725 99.4942 247.022 99.1967 247.33 98.8964C247.401 98.8256 247.477 98.7519 247.551 98.6811C247.884 98.3779 248.222 98.0663 248.56 97.7405C250.341 96.1369 252.474 94.4993 255.008 92.9524C257.962 91.1504 261.464 89.4789 265.607 88.1359C266.531 87.8384 267.486 87.5551 268.476 87.2916C268.54 87.2742 268.603 87.2579 268.667 87.2412C268.707 87.2309 268.747 87.2204 268.787 87.2095C269.54 87.014 270.279 86.8355 271.007 86.674C271.331 86.6003 271.653 86.5323 271.975 86.4643C272.881 86.2802 273.764 86.1187 274.632 85.9827C275.455 85.8552 276.26 85.7447 277.048 85.6597C282.339 85.0704 286.807 85.3906 290.453 86.1159C291.032 86.2292 291.588 86.3538 292.125 86.487C292.682 86.6258 293.216 86.7732 293.729 86.9261C295.524 87.4645 297.043 88.0792 298.292 88.6799C294.973 93.2583 287.917 100.222 274.283 104.092C273.712 103.735 273.107 103.387 272.466 103.047C271.88 102.735 271.263 102.429 270.617 102.135C269.954 101.834 269.259 101.543 268.53 101.265C266.774 100.596 264.821 100.007 262.653 99.5339C261.775 99.344 260.921 99.1882 260.089 99.0607C259.134 98.919 258.207 98.8142 257.313 98.7491C257.291 98.7491 257.272 98.7462 257.25 98.7462C256.227 98.6697 255.245 98.6442 254.301 98.6584ZM245.972 92.2865C245.702 93.9213 245.38 95.4455 245.034 96.8565C245.061 96.8281 245.088 96.8026 245.115 96.7743C245.171 96.7209 245.226 96.6671 245.281 96.6132L245.286 96.6087L245.286 96.608C245.335 96.5606 245.384 96.5131 245.433 96.4655C245.492 96.408 245.552 96.3503 245.612 96.2927C246.766 95.1877 248.075 94.0544 249.553 92.9353C250.461 92.2468 251.432 91.5641 252.471 90.8954C252.651 90.7793 252.834 90.6631 253.02 90.547C254.045 89.9066 255.139 89.2777 256.298 88.6714C257.16 88.2209 258.06 87.7817 258.998 87.3596C261.687 86.1498 264.696 85.0647 268.056 84.1892C268.492 84.0759 268.926 83.9654 269.357 83.8634C270.14 83.6764 270.909 83.5065 271.664 83.3535C272.395 83.2061 273.115 83.0758 273.824 82.9596C274.433 82.8605 275.035 82.7698 275.627 82.6933C279.983 77.8769 283.179 73.2163 285.519 68.8843C285.814 68.3403 286.092 67.8049 286.359 67.2722C286.627 66.7368 286.883 66.207 287.126 65.6828C290.276 58.8973 291.34 53.1091 291.621 49.0888C289.894 49.2956 287.83 49.6809 285.5 50.3637C285.004 50.5111 284.494 50.6697 283.973 50.8426C283.471 51.0125 282.956 51.1938 282.435 51.3893C278.728 52.7804 274.525 54.9138 270.05 58.1578C269.458 58.5857 268.863 59.0333 268.263 59.4979C267.649 59.9768 267.03 60.4782 266.408 60.9995C264.21 62.844 261.965 64.9604 259.694 67.3941C259.643 67.4493 259.592 67.5039 259.541 67.5584C259.49 67.6129 259.439 67.6675 259.388 67.7227C258.886 68.2667 258.398 68.8107 257.926 69.3518C257.266 70.1111 256.636 70.8676 256.031 71.6212C251.5 77.2706 248.525 82.7472 246.564 87.6798C246.536 87.9772 246.506 88.2747 246.476 88.5665C246.34 89.8642 246.168 91.1051 245.972 92.2865ZM223.732 87.3596C221.043 86.1498 218.035 85.0647 214.672 84.1892C214.235 84.0759 213.802 83.9654 213.374 83.8634C212.591 83.6764 211.822 83.5064 211.064 83.3535C210.333 83.2061 209.613 83.0758 208.906 82.9596C208.295 82.8605 207.695 82.7698 207.101 82.6933C202.748 77.8769 199.548 73.2163 197.208 68.8843C196.916 68.3403 196.635 67.8049 196.368 67.2722C196.101 66.7368 195.845 66.207 195.602 65.6828C192.454 58.8973 191.391 53.1091 191.107 49.0888C192.836 49.2956 194.901 49.6809 197.227 50.3637C197.724 50.5111 198.234 50.6697 198.755 50.8426C199.259 51.0125 199.772 51.1938 200.296 51.3893C203.999 52.7804 208.202 54.9138 212.681 58.1578C213.27 58.5857 213.865 59.0333 214.465 59.4979C215.078 59.9767 215.697 60.4782 216.322 60.9995C218.512 62.8383 220.754 64.9519 223.018 67.3771C223.127 67.4932 223.233 67.6065 223.34 67.7227C223.836 68.261 224.319 68.7993 224.785 69.332C225.445 70.0913 226.075 70.8449 226.681 71.5985C231.222 77.2564 234.203 82.7415 236.164 87.6797C236.407 88.2889 236.636 88.8924 236.846 89.4845C237.702 91.87 238.321 94.1111 238.771 96.1595C238.773 96.1734 238.774 96.1874 238.776 96.2013L238.778 96.2283C238.78 96.2531 238.782 96.2775 238.785 96.3011C238.837 96.9443 238.9 97.5704 238.968 98.1739C238.57 97.7404 238.144 97.3013 237.697 96.8565L237.558 96.7204L237.542 96.7055L237.542 96.7049C237.402 96.5682 237.26 96.4291 237.119 96.2927C235.954 95.1792 234.637 94.0403 233.147 92.9155C232.242 92.2299 231.274 91.547 230.235 90.8812L230.136 90.8179L230.135 90.8175C229.996 90.7274 229.854 90.6363 229.711 90.5469C228.683 89.9066 227.589 89.2777 226.43 88.6714C225.568 88.2209 224.671 87.7817 223.732 87.3596ZM237.413 82.9624C237.942 84.0816 238.42 85.1808 238.853 86.2546C238.943 86.4813 239.033 86.7079 239.121 86.9318C239.492 87.8894 239.827 88.8271 240.13 89.7423C240.506 90.8784 240.831 91.9805 241.114 93.0429C241.188 93.3229 241.258 93.5988 241.327 93.8724L241.327 93.8728L241.365 94.0233C241.504 94.5871 241.633 95.1424 241.747 95.6807C241.823 96.0348 241.894 96.3833 241.963 96.7261C242.181 95.8846 242.388 94.995 242.582 94.0601C243.026 91.9154 243.392 89.5383 243.61 86.9318C243.662 86.3 243.705 85.654 243.741 84.9939C243.869 82.5176 243.858 79.8573 243.659 77.0184C243.572 75.7888 243.449 74.5252 243.285 73.2304C243.16 72.2303 243.01 71.2075 242.833 70.1677C242.464 67.9862 241.982 65.7196 241.365 63.3737C241.123 62.4558 240.863 61.5237 240.58 60.5802C240.559 60.5108 240.538 60.4415 240.517 60.3721C240.496 60.3027 240.475 60.2332 240.454 60.1637C240.233 59.4469 240.01 58.7415 239.783 58.0502C236.715 48.7884 232.785 41.8924 228.863 36.7984C228.489 36.3139 228.116 35.8436 227.742 35.3931C227.363 34.9313 226.986 34.4865 226.61 34.0587C223.375 30.3812 220.263 27.8766 217.776 26.2249C216.499 29.4661 215.174 34.0983 214.675 40.0707C214.628 40.6317 214.59 41.2068 214.557 41.7933C214.527 42.3713 214.503 42.9606 214.489 43.5612C214.397 47.369 214.647 51.6358 215.419 56.3531C217.77 58.1295 220.184 60.1977 222.636 62.606C223.168 63.1273 223.7 63.6656 224.234 64.2209C224.657 64.66 225.08 65.1077 225.505 65.5695C225.569 65.6388 225.633 65.7089 225.697 65.779L225.7 65.7813L225.7 65.7814C225.763 65.8508 225.827 65.9201 225.89 65.9888C230.262 70.791 233.505 75.531 235.919 80.0074C236.456 81.0075 236.955 81.9935 237.413 82.9624ZM211.708 41.893C211.53 45.5034 211.644 49.5302 212.203 53.9653C207.915 51.1434 203.904 49.2765 200.359 48.0479C200.375 44.1087 200.878 40.7726 201.475 38.1959C204.254 38.7834 207.804 39.8763 211.708 41.893Z" fill="url(#paint0_linear_192_1108)"/>
<defs>
<linearGradient id="paint0_linear_192_1108" x1="180.238" y1="16.0453" x2="306.129" y2="111.961" gradientUnits="userSpaceOnUse">
<stop stop-color="#FFED50"/>
<stop offset="1" stop-color="#D89B00"/>
</linearGradient>
</defs>
</svg>
