<svg width="180" height="351" viewBox="0 0 180 351" fill="none" xmlns="http://www.w3.org/2000/svg">
<path d="M24 66C24 29.5492 53.5492 0 90 0V0C126.451 0 156 29.5492 156 66V261C156 297.451 126.451 327 90 327V327C53.5492 327 24 297.451 24 261V66Z" fill="#94962F"/>
<rect x="24" y="133" width="132" height="70" fill="url(#paint0_linear_192_1199)" fill-opacity="0.51"/>
<g filter="url(#filter0_b_192_1199)">
<path d="M0 180.551C0 178.59 1.58985 177 3.55102 177H176.449C178.41 177 180 178.59 180 180.551V261C180 310.706 139.706 351 90 351V351C40.2944 351 0 310.706 0 261V180.551Z" fill="url(#paint1_linear_192_1199)"/>
<path d="M3.55102 177.5H176.449C178.134 177.5 179.5 178.866 179.5 180.551V261C179.5 310.429 139.429 350.5 90 350.5C40.5705 350.5 0.5 310.429 0.5 261V180.551C0.5 178.866 1.86599 177.5 3.55102 177.5Z" stroke="url(#paint2_linear_192_1199)"/>
</g>
<defs>
<filter id="filter0_b_192_1199" x="-200" y="-23" width="580" height="574" filterUnits="userSpaceOnUse" color-interpolation-filters="sRGB">
<feFlood flood-opacity="0" result="BackgroundImageFix"/>
<feGaussianBlur in="BackgroundImageFix" stdDeviation="100"/>
<feComposite in2="SourceAlpha" operator="in" result="effect1_backgroundBlur_192_1199"/>
<feBlend mode="normal" in="SourceGraphic" in2="effect1_backgroundBlur_192_1199" result="shape"/>
</filter>
<linearGradient id="paint0_linear_192_1199" x1="90" y1="133" x2="90" y2="203" gradientUnits="userSpaceOnUse">
<stop stop-opacity="0"/>
<stop offset="1"/>
</linearGradient>
<linearGradient id="paint1_linear_192_1199" x1="-5.90195" y1="177.081" x2="209.069" y2="321.627" gradientUnits="userSpaceOnUse">
<stop stop-color="#AEAEAE" stop-opacity="0.3"/>
<stop offset="1" stop-color="#575757" stop-opacity="0.3"/>
</linearGradient>
<linearGradient id="paint2_linear_192_1199" x1="0" y1="177" x2="218.679" y2="274.345" gradientUnits="userSpaceOnUse">
<stop stop-color="white" stop-opacity="0.1"/>
<stop offset="1" stop-color="white" stop-opacity="0.62"/>
</linearGradient>
</defs>
</svg>
