<svg width="580" height="333" viewBox="0 0 580 333" fill="none" xmlns="http://www.w3.org/2000/svg">
<g filter="url(#filter0_b_192_884)">
<rect width="580" height="333" rx="12" fill="url(#paint0_linear_192_884)" fill-opacity="0.9"/>
<rect x="0.5" y="0.5" width="579" height="332" rx="11.5" stroke="url(#paint1_linear_192_884)"/>
</g>
<g opacity="0.5">
<g clip-path="url(#clip0_192_884)">
<path fill-rule="evenodd" clip-rule="evenodd" d="M492.885 166.37C493.433 167.747 493.967 169.145 494.481 170.58C495.001 172.007 495.508 173.463 495.993 174.947C499.018 184.173 501.447 194.53 502.904 206.084C503.112 207.749 503.306 209.429 503.473 211.137C503.646 212.874 503.792 214.632 503.917 216.42C504.25 221.076 504.423 225.912 504.423 230.929C504.423 237.3 504.111 243.398 503.535 249.215C492.441 261.417 484.198 273.461 478.064 284.835C477.877 277.331 477.197 269.309 475.858 260.79C475.504 258.556 475.108 256.3 474.664 254C474.276 251.975 473.845 249.928 473.381 247.845C472.229 242.706 470.834 237.408 469.169 231.959C468.864 230.958 468.551 229.963 468.239 228.976C467.587 226.943 466.921 224.947 466.241 222.993C465.582 221.083 464.902 219.216 464.215 217.386C455.84 195.179 445.578 178.609 435.51 166.341C443.94 145.144 455.375 130.765 464.194 122C473.013 130.772 484.461 145.151 492.885 166.37ZM540.08 187.872C540.534 197.056 540.244 207.3 538.823 218.583C549.731 211.405 559.936 206.655 568.954 203.529C568.911 193.508 567.632 185.021 566.115 178.466C559.044 179.961 550.012 182.741 540.08 187.872ZM610.148 260.284C603.852 258.334 595.447 256.565 585.344 256.337C579.924 267.088 572.548 278.658 562.54 290.646C575.104 290.025 585.742 291.33 594.456 293.432C603.332 280.952 607.856 269.053 610.148 260.284ZM470.747 346.396C470.624 346.263 470.504 346.13 470.387 345.999C471.451 345.522 472.6 345.043 473.832 344.577C474.716 344.241 475.642 343.912 476.611 343.594C480.033 342.474 483.986 341.494 488.464 340.881C491.165 340.511 494.059 340.275 497.141 340.223C503.013 340.123 509.571 340.689 516.808 342.266C517.734 342.467 518.644 342.678 519.537 342.898C522.198 343.552 524.712 344.282 527.084 345.073C529.215 345.783 531.233 346.542 533.142 347.339C534.332 347.836 535.479 348.347 536.584 348.87C538.527 349.79 540.344 350.747 542.041 351.727C543.696 352.681 545.239 353.66 546.674 354.645C551.933 358.259 555.756 361.989 558.446 365.18C549.762 369.404 534.222 373.747 511.454 368.788C497.767 365.807 487.696 360.528 480.405 355.112C478.798 353.918 477.325 352.717 475.98 351.533C474.74 350.442 473.608 349.366 472.574 348.32C472.308 348.052 472.049 347.785 471.796 347.521C471.615 347.331 471.437 347.143 471.262 346.955C471.214 346.903 471.165 346.851 471.117 346.799L471.044 346.721L470.962 346.632C470.89 346.553 470.818 346.474 470.747 346.396ZM318.278 260.284C320.57 269.052 325.094 280.952 333.97 293.432C342.684 291.33 353.322 290.025 365.886 290.646C355.878 278.658 348.502 267.088 343.082 256.336C332.979 256.564 324.574 258.334 318.278 260.284ZM380.468 346.106C345.782 336.261 327.832 318.544 319.388 306.897C322.566 305.369 326.438 303.805 331.003 302.435C332.301 302.046 333.661 301.671 335.076 301.318C336.443 300.979 337.858 300.662 339.329 300.374C348.606 298.529 359.971 297.714 373.432 299.214C375.437 299.43 377.491 299.711 379.587 300.035C381.786 300.381 384.041 300.792 386.345 301.26L386.627 301.32C387.346 301.474 388.072 301.628 388.808 301.794C390.661 302.205 392.541 302.659 394.456 303.156L394.526 303.175L394.619 303.2C394.696 303.22 394.774 303.24 394.851 303.261C394.983 303.295 395.115 303.329 395.247 303.365C397.759 304.035 400.194 304.756 402.546 305.513C413.079 308.929 421.988 313.182 429.502 317.766C435.955 321.701 441.374 325.867 445.905 329.947C446.772 330.776 447.626 331.568 448.472 332.34C448.615 332.474 448.752 332.609 448.888 332.744L448.895 332.751C449.735 333.558 450.533 334.365 451.296 335.158C451.148 335.114 450.993 335.071 450.838 335.028C450.762 335.006 450.685 334.985 450.609 334.963C448.535 334.401 446.321 333.889 443.955 333.471C443.31 333.356 442.651 333.248 441.985 333.147C439.133 332.722 436.08 332.426 432.833 332.318C432.326 332.304 431.82 332.289 431.299 332.282C428.906 332.246 426.401 332.311 423.799 332.505L423.789 332.506L423.779 332.506L423.762 332.507C423.75 332.507 423.737 332.508 423.724 332.509C423.697 332.511 423.668 332.513 423.639 332.513C421.363 332.678 419.011 332.945 416.576 333.305C414.459 333.63 412.288 334.026 410.054 334.509C404.544 335.713 399.576 337.212 395.108 338.913C393.248 339.619 391.486 340.362 389.8 341.126C388.149 341.875 386.588 342.654 385.089 343.447C383.465 344.312 381.925 345.198 380.468 346.106ZM416.972 368.789C430.662 365.805 440.736 360.529 448.022 355.116C449.632 353.919 451.103 352.716 452.449 351.533C453.691 350.445 454.822 349.364 455.855 348.319L455.862 348.312C456.124 348.048 456.385 347.783 456.633 347.519C456.813 347.331 456.993 347.144 457.167 346.957L457.177 346.946L457.177 346.946C457.347 346.762 457.517 346.578 457.68 346.394C457.73 346.342 457.779 346.289 457.827 346.236C457.86 346.2 457.892 346.164 457.924 346.128L457.925 346.127C457.964 346.084 458.002 346.041 458.041 345.998C456.979 345.522 455.828 345.047 454.6 344.578C453.711 344.239 452.789 343.915 451.817 343.598C448.397 342.473 444.442 341.493 439.966 340.881C437.267 340.513 434.374 340.275 431.286 340.225C425.416 340.124 418.859 340.693 411.622 342.264C410.693 342.466 409.784 342.675 408.889 342.899C406.231 343.555 403.719 344.283 401.346 345.075C399.216 345.782 397.197 346.539 395.289 347.339C394.096 347.836 392.951 348.348 391.848 348.874C389.905 349.789 388.087 350.748 386.387 351.728C384.736 352.679 383.188 353.66 381.752 354.647C376.493 358.258 372.677 361.992 369.984 365.178C378.664 369.401 394.207 373.747 416.972 368.789ZM512.049 230.928C512.049 234.222 511.973 237.451 511.82 240.601C518.072 234.46 524.227 229.184 530.221 224.658C532.185 212.657 532.816 201.802 532.581 192.115C532.546 190.587 532.483 189.088 532.407 187.618C532.324 186.126 532.227 184.663 532.109 183.236C530.839 168.042 527.474 156.258 524.227 148.012C517.885 152.221 509.961 158.6 501.725 167.977C505.09 177.304 507.873 187.798 509.704 199.539C509.94 201.075 510.162 202.639 510.37 204.224C510.579 205.817 510.766 207.439 510.939 209.075C511.661 215.965 512.049 223.245 512.049 230.928ZM497.126 332.282C496.612 332.289 496.099 332.304 495.592 332.318C492.352 332.426 489.299 332.722 486.447 333.147C485.774 333.248 485.122 333.356 484.47 333.471C482.09 333.897 479.856 334.408 477.774 334.978C477.56 335.042 477.346 335.1 477.132 335.157L477.129 335.158C477.85 334.408 478.607 333.651 479.391 332.887C479.571 332.707 479.766 332.52 479.953 332.34C480.799 331.568 481.66 330.776 482.52 329.947C487.051 325.867 492.477 321.701 498.923 317.766C506.437 313.182 515.346 308.929 525.886 305.513C528.238 304.756 530.666 304.035 533.185 303.365C533.449 303.293 533.713 303.228 533.976 303.156C535.891 302.659 537.772 302.205 539.624 301.794C540.448 301.607 541.266 301.434 542.083 301.261L542.087 301.26C544.391 300.792 546.639 300.381 548.845 300.035C550.941 299.711 552.988 299.43 554.993 299.214C568.454 297.714 579.819 298.529 589.096 300.374C590.567 300.662 591.982 300.979 593.349 301.318C594.764 301.671 596.124 302.046 597.429 302.435C601.994 303.805 605.859 305.369 609.037 306.897C600.593 318.544 582.643 336.261 547.957 346.106C546.507 345.198 544.967 344.312 543.336 343.447C541.844 342.654 540.276 341.875 538.632 341.126C536.946 340.362 535.176 339.619 533.324 338.913C528.855 337.212 523.888 335.713 518.371 334.509C516.137 334.026 513.965 333.63 511.849 333.305C509.421 332.945 507.062 332.678 504.786 332.513C504.771 332.513 504.757 332.512 504.743 332.511L504.727 332.51L504.706 332.509C504.68 332.507 504.654 332.505 504.626 332.505C502.024 332.311 499.526 332.246 497.126 332.282ZM475.935 316.072C475.248 320.231 474.429 324.109 473.548 327.698C473.617 327.626 473.687 327.561 473.756 327.489C473.899 327.35 474.043 327.21 474.187 327.069L474.188 327.069L474.188 327.068L474.189 327.068C474.462 326.801 474.737 326.532 475.019 326.264C477.954 323.453 481.284 320.57 485.045 317.723C487.355 315.971 489.826 314.234 492.469 312.533C492.927 312.238 493.392 311.942 493.864 311.647C496.473 310.018 499.255 308.418 502.204 306.875C504.396 305.729 506.686 304.612 509.073 303.538C515.914 300.46 523.567 297.7 532.116 295.473C533.226 295.184 534.329 294.903 535.425 294.644C537.417 294.168 539.373 293.736 541.295 293.346C543.155 292.972 544.987 292.64 546.791 292.345C548.338 292.092 549.871 291.862 551.377 291.667C562.458 279.414 570.59 267.558 576.543 256.537C577.292 255.153 578 253.791 578.68 252.436C579.36 251.074 580.012 249.726 580.63 248.393C588.644 231.13 591.35 216.405 592.065 206.178C587.672 206.704 582.42 207.684 576.495 209.421C575.232 209.796 573.934 210.2 572.609 210.639C571.332 211.072 570.021 211.533 568.696 212.03C559.266 215.569 548.574 220.996 537.188 229.249C535.682 230.338 534.169 231.476 532.643 232.658C531.082 233.876 529.507 235.152 527.925 236.478C522.333 241.171 516.622 246.555 510.842 252.746C510.714 252.887 510.584 253.025 510.454 253.164C510.324 253.303 510.194 253.442 510.065 253.582C508.789 254.966 507.546 256.35 506.346 257.726C504.667 259.658 503.064 261.583 501.524 263.5C489.999 277.872 482.429 291.804 477.44 304.353C477.371 305.109 477.295 305.866 477.218 306.609C476.871 309.91 476.434 313.067 475.935 316.072ZM419.357 303.538C412.516 300.46 404.862 297.7 396.307 295.473C395.197 295.184 394.094 294.903 393.005 294.644C391.013 294.168 389.057 293.736 387.128 293.346C385.268 292.972 383.436 292.64 381.639 292.345C380.085 292.092 378.559 291.862 377.046 291.667C365.972 279.414 357.833 267.558 351.88 256.537C351.138 255.153 350.423 253.791 349.743 252.436C349.063 251.074 348.411 249.726 347.793 248.393C339.786 231.13 337.08 216.405 336.359 206.178C340.758 206.704 346.01 207.684 351.929 209.421C353.191 209.796 354.489 210.2 355.814 210.639C357.098 211.072 358.402 211.533 359.734 212.03C369.157 215.569 379.849 220.996 391.242 229.249C392.741 230.338 394.253 231.476 395.78 232.658C397.341 233.876 398.916 235.152 400.505 236.478C406.077 241.156 411.78 246.533 417.539 252.703C417.817 252.998 418.087 253.287 418.358 253.582C419.621 254.952 420.849 256.321 422.035 257.676C423.714 259.608 425.317 261.525 426.858 263.442C438.41 277.836 445.994 291.79 450.983 304.353C451.6 305.902 452.183 307.437 452.717 308.944C454.896 315.013 456.471 320.714 457.616 325.925C457.63 326.047 457.637 326.17 457.651 326.285C457.783 327.921 457.942 329.514 458.116 331.049C457.103 329.947 456.02 328.83 454.882 327.698L454.528 327.352L454.491 327.315C454.135 326.967 453.773 326.612 453.411 326.264C450.449 323.431 447.097 320.534 443.309 317.672C441.005 315.928 438.542 314.191 435.898 312.497L435.65 312.337L435.648 312.336L435.645 312.334C435.29 312.105 434.931 311.874 434.566 311.647C431.951 310.018 429.168 308.418 426.219 306.875C424.027 305.729 421.744 304.612 419.357 303.538ZM454.161 292.352C455.507 295.199 456.722 297.995 457.825 300.727C458.054 301.304 458.283 301.88 458.505 302.45C459.448 304.886 460.302 307.271 461.072 309.599C462.029 312.49 462.855 315.293 463.577 317.996C463.765 318.71 463.943 319.413 464.119 320.111L464.215 320.49C464.569 321.925 464.895 323.337 465.186 324.707C465.381 325.608 465.561 326.494 465.735 327.366C466.29 325.226 466.817 322.962 467.31 320.584C468.441 315.128 469.37 309.081 469.926 302.45C470.057 300.842 470.168 299.199 470.259 297.52C470.585 291.22 470.557 284.452 470.05 277.23C469.828 274.102 469.516 270.887 469.1 267.594C468.781 265.049 468.399 262.447 467.948 259.802C467.011 254.252 465.783 248.486 464.215 242.518C463.598 240.183 462.938 237.812 462.217 235.412C462.184 235.301 462.151 235.19 462.117 235.08C462.097 235.014 462.077 234.947 462.057 234.881C462.003 234.705 461.95 234.528 461.898 234.352C461.336 232.529 460.767 230.734 460.191 228.975C452.385 205.413 442.387 187.87 432.409 174.911C431.458 173.678 430.508 172.482 429.557 171.336C428.593 170.161 427.635 169.03 426.678 167.941C418.449 158.586 410.532 152.214 404.204 148.012C400.957 156.258 397.584 168.042 396.315 183.236C396.197 184.663 396.1 186.126 396.016 187.618C395.94 189.088 395.878 190.587 395.843 192.115C395.607 201.802 396.245 212.657 398.209 224.658C404.19 229.177 410.331 234.439 416.568 240.565C417.921 241.891 419.274 243.261 420.634 244.673C421.71 245.791 422.785 246.929 423.868 248.104C424.03 248.28 424.192 248.457 424.354 248.635L424.354 248.635L424.357 248.638C424.52 248.816 424.683 248.994 424.846 249.171C435.968 261.388 444.218 273.446 450.359 284.834C451.726 287.378 452.996 289.887 454.161 292.352ZM388.768 187.872C388.315 197.056 388.604 207.3 390.026 218.583C379.117 211.405 368.913 206.655 359.894 203.529C359.938 193.508 361.217 185.021 362.734 178.466C369.805 179.961 378.836 182.741 388.768 187.872Z" fill="#EADDCA"/>
</g>
</g>
<defs>
<filter id="filter0_b_192_884" x="-199.8" y="-199.8" width="979.6" height="732.6" filterUnits="userSpaceOnUse" color-interpolation-filters="sRGB">
<feFlood flood-opacity="0" result="BackgroundImageFix"/>
<feGaussianBlur in="BackgroundImageFix" stdDeviation="99.9"/>
<feComposite in2="SourceAlpha" operator="in" result="effect1_backgroundBlur_192_884"/>
<feBlend mode="normal" in="SourceGraphic" in2="effect1_backgroundBlur_192_884" result="shape"/>
</filter>
<linearGradient id="paint0_linear_192_884" x1="317" y1="10" x2="189" y2="626" gradientUnits="userSpaceOnUse">
<stop stop-color="white"/>
<stop offset="1" stop-color="white"/>
</linearGradient>
<linearGradient id="paint1_linear_192_884" x1="465.5" y1="-48" x2="290" y2="457.5" gradientUnits="userSpaceOnUse">
<stop stop-color="#FAE8D2"/>
<stop offset="1" stop-color="#F2F2F2"/>
</linearGradient>
<clipPath id="clip0_192_884">
<rect x="318" y="333" width="211" height="262" rx="12" transform="rotate(-90 318 333)" fill="white"/>
</clipPath>
</defs>
</svg>
