<svg width="469" height="269" viewBox="0 0 469 269" fill="none" xmlns="http://www.w3.org/2000/svg">
<g filter="url(#filter0_b_192_879)">
<rect width="468.529" height="269" rx="9.69369" fill="#E9E2D5"/>
<rect x="0.403904" y="0.403904" width="467.721" height="268.192" rx="9.28979" stroke="url(#paint0_linear_192_879)" stroke-width="0.807808"/>
</g>
<g opacity="0.5">
<g clip-path="url(#clip0_192_879)">
<path fill-rule="evenodd" clip-rule="evenodd" d="M398.627 134.395C399.07 135.507 399.502 136.637 399.916 137.795C400.337 138.948 400.746 140.124 401.138 141.324C403.582 148.776 405.544 157.143 406.721 166.476C406.889 167.821 407.046 169.178 407.181 170.558C407.321 171.961 407.438 173.382 407.539 174.826C407.808 178.587 407.948 182.494 407.948 186.546C407.948 191.693 407.696 196.619 407.231 201.317C398.269 211.175 391.61 220.904 386.655 230.092C386.504 224.03 385.954 217.55 384.873 210.668C384.587 208.863 384.267 207.041 383.909 205.184C383.595 203.547 383.247 201.894 382.872 200.211C381.941 196.06 380.815 191.78 379.469 187.379C379.223 186.569 378.971 185.766 378.718 184.968C378.192 183.326 377.653 181.714 377.104 180.136C376.572 178.593 376.022 177.085 375.468 175.606C368.702 157.667 360.412 144.282 352.28 134.372C359.09 117.248 368.327 105.633 375.451 98.5527C382.575 105.639 391.823 117.254 398.627 134.395ZM436.752 151.764C437.119 159.184 436.885 167.459 435.736 176.573C444.549 170.774 452.792 166.938 460.077 164.413C460.042 156.318 459.009 149.462 457.783 144.166C452.071 145.374 444.775 147.62 436.752 151.764ZM493.353 210.259C488.267 208.684 481.478 207.255 473.317 207.071C468.939 215.756 462.98 225.102 454.895 234.786C465.045 234.285 473.638 235.339 480.678 237.037C487.848 226.955 491.502 217.343 493.353 210.259ZM380.744 279.821L380.683 279.754L380.607 279.671C380.556 279.614 380.504 279.557 380.454 279.501C381.314 279.115 382.241 278.728 383.237 278.352C383.951 278.081 384.699 277.815 385.482 277.558C388.246 276.653 391.439 275.861 395.056 275.367C397.239 275.068 399.576 274.877 402.066 274.835C406.809 274.754 412.107 275.211 417.953 276.485C418.701 276.648 419.436 276.818 420.158 276.995C422.307 277.524 424.338 278.113 426.254 278.752C427.976 279.326 429.606 279.939 431.148 280.583C432.109 280.985 433.035 281.398 433.928 281.82C435.498 282.563 436.965 283.336 438.337 284.128C439.674 284.899 440.92 285.689 442.079 286.485C446.328 289.404 449.415 292.418 451.589 294.995C444.574 298.408 432.02 301.916 413.628 297.91C402.571 295.501 394.436 291.237 388.546 286.862C387.248 285.897 386.058 284.928 384.972 283.971C383.97 283.09 383.055 282.22 382.22 281.376C382.005 281.159 381.796 280.944 381.592 280.73C381.446 280.576 381.302 280.424 381.161 280.273C381.019 280.122 380.88 279.971 380.744 279.821ZM257.579 210.259C259.431 217.343 263.085 226.955 270.255 237.036C277.294 235.338 285.888 234.285 296.037 234.786C287.952 225.102 281.994 215.756 277.615 207.071C269.455 207.255 262.665 208.684 257.579 210.259ZM307.816 279.587C279.797 271.634 265.297 257.323 258.476 247.914C261.043 246.679 264.17 245.416 267.858 244.31C268.907 243.995 270.005 243.692 271.148 243.407C272.253 243.133 273.396 242.877 274.584 242.644C282.078 241.154 291.259 240.496 302.133 241.707C303.753 241.882 305.412 242.109 307.105 242.371C308.881 242.65 310.703 242.982 312.564 243.361L312.789 243.409C313.371 243.532 313.958 243.657 314.554 243.791C316.05 244.123 317.569 244.49 319.116 244.892C319.222 244.921 319.329 244.949 319.435 244.976L319.541 245.004L319.609 245.022L319.687 245.042L319.755 245.061C321.784 245.602 323.751 246.184 325.651 246.796C334.16 249.556 341.357 252.991 347.427 256.694C352.639 259.873 357.017 263.238 360.677 266.534C361.378 267.203 362.067 267.844 362.751 268.467C362.869 268.577 362.981 268.688 363.093 268.798C363.771 269.451 364.415 270.103 365.032 270.743C364.912 270.708 364.788 270.673 364.663 270.638L364.663 270.638L364.564 270.61L364.477 270.586C362.801 270.132 361.013 269.718 359.102 269.381C358.581 269.288 358.048 269.2 357.51 269.119C355.207 268.775 352.74 268.536 350.117 268.449C349.708 268.437 349.299 268.426 348.879 268.42C346.945 268.391 344.921 268.443 342.82 268.6C342.801 268.6 342.78 268.602 342.759 268.603C342.737 268.605 342.714 268.606 342.691 268.606C340.852 268.74 338.952 268.956 336.985 269.247C335.275 269.509 333.521 269.829 331.716 270.219C327.266 271.191 323.252 272.402 319.643 273.777C318.141 274.347 316.717 274.947 315.355 275.564C314.021 276.17 312.76 276.798 311.549 277.439C310.238 278.138 308.993 278.854 307.816 279.587ZM337.305 297.91C348.363 295.5 356.502 291.238 362.387 286.865C363.687 285.899 364.876 284.926 365.963 283.971C366.966 283.092 367.88 282.219 368.715 281.375L368.719 281.371C368.931 281.157 369.142 280.942 369.343 280.728C369.489 280.577 369.634 280.426 369.774 280.274L369.783 280.265L369.783 280.265L369.783 280.265L369.788 280.26L369.921 280.115C369.967 280.066 370.012 280.017 370.056 279.968C370.101 279.919 370.145 279.869 370.189 279.82C370.29 279.715 370.385 279.605 370.481 279.5C369.623 279.115 368.693 278.731 367.7 278.353C366.983 278.079 366.238 277.817 365.453 277.561C362.69 276.653 359.495 275.861 355.88 275.366C353.699 275.069 351.362 274.877 348.868 274.836C344.126 274.755 338.829 275.215 332.983 276.484C332.232 276.647 331.498 276.816 330.775 276.996C328.628 277.526 326.599 278.114 324.682 278.755C322.961 279.325 321.33 279.936 319.789 280.583C318.825 280.985 317.9 281.398 317.009 281.823C315.44 282.562 313.971 283.337 312.598 284.129C311.264 284.897 310.014 285.689 308.854 286.487C304.605 289.404 301.522 292.42 299.348 294.993C306.36 298.405 318.915 301.916 337.305 297.91ZM414.109 186.546C414.109 189.207 414.047 191.815 413.924 194.359C418.974 189.399 423.946 185.137 428.788 181.48C430.375 171.786 430.885 163.017 430.694 155.192C430.666 153.958 430.616 152.747 430.554 151.559C430.487 150.354 430.408 149.172 430.313 148.019C429.287 135.746 426.569 126.226 423.946 119.565C418.823 122.965 412.422 128.118 405.769 135.693C408.487 143.227 410.735 151.705 412.215 161.189C412.405 162.429 412.585 163.693 412.753 164.974C412.921 166.261 413.072 167.571 413.212 168.892C413.795 174.458 414.109 180.339 414.109 186.546ZM402.053 268.42C401.639 268.426 401.224 268.437 400.815 268.449C398.197 268.536 395.731 268.775 393.427 269.119C392.884 269.2 392.357 269.288 391.83 269.381C389.907 269.724 388.103 270.138 386.421 270.598C386.249 270.65 386.076 270.696 385.904 270.742L385.9 270.743C386.483 270.138 387.094 269.526 387.727 268.909C387.873 268.764 388.03 268.612 388.181 268.467C388.865 267.844 389.56 267.203 390.255 266.534C393.915 263.238 398.298 259.873 403.505 256.694C409.575 252.991 416.772 249.556 425.286 246.796C427.186 246.184 429.148 245.602 431.183 245.061C431.289 245.032 431.396 245.004 431.503 244.976C431.609 244.949 431.715 244.921 431.822 244.892C433.369 244.49 434.887 244.123 436.384 243.791C437.05 243.64 437.711 243.501 438.372 243.361L438.374 243.361C440.235 242.982 442.051 242.65 443.833 242.371C445.526 242.109 447.179 241.882 448.799 241.707C459.673 240.496 468.854 241.154 476.348 242.644C477.536 242.877 478.679 243.133 479.783 243.407C480.927 243.692 482.025 243.995 483.079 244.31C486.767 245.416 489.889 246.679 492.456 247.914C485.635 257.323 471.135 271.634 443.116 279.587C441.944 278.854 440.7 278.138 439.383 277.439C438.178 276.798 436.911 276.17 435.583 275.564C434.221 274.947 432.791 274.347 431.295 273.777C427.685 272.402 423.672 271.191 419.216 270.219C417.411 269.829 415.657 269.509 413.947 269.247C411.986 268.956 410.08 268.74 408.241 268.606C408.197 268.606 408.157 268.6 408.113 268.6C406.011 268.443 403.993 268.391 402.053 268.42ZM384.935 255.325C384.38 258.685 383.719 261.817 383.007 264.717C383.039 264.684 383.07 264.653 383.102 264.622C383.126 264.598 383.151 264.573 383.175 264.548C383.236 264.489 383.298 264.429 383.359 264.369L383.525 264.208L383.525 264.208C383.746 263.992 383.968 263.775 384.195 263.558C386.566 261.288 389.257 258.958 392.295 256.659C394.161 255.244 396.156 253.841 398.292 252.467C398.662 252.228 399.037 251.989 399.419 251.75C401.526 250.435 403.774 249.142 406.156 247.896C407.927 246.97 409.776 246.068 411.705 245.2C417.231 242.714 423.413 240.484 430.319 238.685C431.216 238.452 432.107 238.225 432.992 238.015C434.601 237.631 436.182 237.282 437.734 236.967C439.236 236.665 440.716 236.397 442.173 236.158C443.423 235.954 444.662 235.768 445.878 235.611C454.829 225.713 461.398 216.135 466.207 207.233C466.813 206.115 467.385 205.014 467.934 203.92C468.483 202.819 469.01 201.731 469.509 200.653C475.983 186.709 478.169 174.814 478.746 166.552C475.198 166.977 470.955 167.769 466.168 169.172C465.148 169.475 464.1 169.801 463.029 170.156C461.998 170.505 460.939 170.878 459.868 171.28C452.251 174.138 443.614 178.523 434.416 185.189C433.2 186.068 431.978 186.988 430.745 187.943C429.484 188.927 428.211 189.958 426.933 191.029C422.416 194.819 417.803 199.169 413.134 204.17C413.03 204.284 412.925 204.396 412.82 204.508C412.715 204.62 412.61 204.732 412.506 204.845C411.475 205.963 410.472 207.081 409.502 208.193C408.145 209.754 406.851 211.308 405.606 212.857C396.297 224.467 390.182 235.721 386.152 245.858C386.095 246.47 386.034 247.081 385.972 247.681C385.692 250.347 385.339 252.897 384.935 255.325ZM339.231 245.2C333.705 242.714 327.522 240.484 320.611 238.685C319.715 238.452 318.823 238.225 317.943 238.016C316.335 237.631 314.754 237.282 313.196 236.968C311.694 236.665 310.214 236.397 308.763 236.158C307.507 235.955 306.274 235.768 305.052 235.611C296.106 225.713 289.532 216.135 284.723 207.233C284.123 206.115 283.546 205.015 282.996 203.92C282.447 202.819 281.92 201.731 281.421 200.654C274.953 186.709 272.767 174.814 272.184 166.552C275.738 166.977 279.981 167.769 284.762 169.172C285.782 169.475 286.83 169.801 287.901 170.156C288.938 170.505 289.991 170.878 291.068 171.28C298.679 174.138 307.316 178.523 316.52 185.189C317.731 186.069 318.952 186.988 320.185 187.943C321.447 188.927 322.719 189.958 324.002 191.029C328.503 194.808 333.111 199.151 337.763 204.135C337.987 204.374 338.205 204.607 338.424 204.846C339.444 205.952 340.436 207.058 341.395 208.153C342.751 209.713 344.046 211.262 345.29 212.811C354.622 224.438 360.749 235.71 364.779 245.858C365.278 247.11 365.748 248.35 366.18 249.567C367.94 254.47 369.212 259.075 370.137 263.285C370.142 263.332 370.147 263.379 370.151 263.426C370.155 263.477 370.159 263.527 370.165 263.576C370.272 264.897 370.401 266.184 370.541 267.424C369.722 266.534 368.848 265.631 367.929 264.717L367.643 264.438C367.346 264.146 367.043 263.85 366.74 263.558C364.347 261.27 361.64 258.93 358.58 256.618C356.719 255.209 354.729 253.806 352.593 252.438L352.392 252.308L352.391 252.307C352.103 252.122 351.812 251.934 351.517 251.751C349.404 250.435 347.157 249.142 344.775 247.896C343.003 246.97 341.159 246.068 339.231 245.2ZM367.347 236.164C368.434 238.464 369.415 240.723 370.306 242.93C370.491 243.395 370.676 243.861 370.855 244.321C371.618 246.289 372.307 248.216 372.929 250.097C373.703 252.432 374.37 254.697 374.953 256.88C375.104 257.455 375.247 258.021 375.389 258.583L375.39 258.585L375.468 258.895C375.754 260.053 376.017 261.194 376.253 262.301C376.41 263.028 376.555 263.745 376.696 264.449C377.144 262.72 377.57 260.892 377.968 258.97C378.882 254.563 379.633 249.678 380.081 244.321C380.188 243.023 380.277 241.695 380.35 240.339C380.613 235.25 380.591 229.783 380.182 223.949C380.003 221.422 379.75 218.825 379.414 216.164C379.156 214.109 378.848 212.007 378.484 209.87C377.727 205.387 376.735 200.729 375.468 195.908C374.969 194.022 374.437 192.106 373.854 190.167C373.812 190.025 373.768 189.882 373.725 189.739C373.681 189.597 373.638 189.454 373.596 189.312C373.142 187.838 372.682 186.389 372.217 184.968C365.912 165.935 357.835 151.763 349.775 141.294C349.007 140.299 348.239 139.332 347.471 138.407C346.692 137.458 345.919 136.543 345.145 135.664C338.498 128.107 332.102 122.96 326.991 119.565C324.367 126.226 321.643 135.746 320.618 148.019C320.522 149.172 320.444 150.354 320.377 151.559C320.315 152.747 320.265 153.958 320.237 155.192C320.046 163.018 320.562 171.786 322.148 181.48C326.979 185.131 331.94 189.381 336.979 194.33C338.072 195.402 339.165 196.508 340.263 197.649C341.132 198.552 342.001 199.472 342.875 200.421C343.007 200.563 343.138 200.707 343.27 200.851L343.37 200.961C343.427 201.022 343.483 201.084 343.539 201.145C343.581 201.191 343.623 201.237 343.665 201.282C352.65 211.151 359.315 220.892 364.275 230.091C365.379 232.147 366.405 234.173 367.347 236.164ZM314.521 151.764C314.155 159.184 314.389 167.459 315.537 176.573C306.725 170.774 298.482 166.938 291.197 164.413C291.232 156.318 292.265 149.462 293.49 144.166C299.203 145.374 306.498 147.62 314.521 151.764Z" fill="#DCC9AB"/>
</g>
</g>
<path d="M202.772 244.883V249.342H202.319V245.781L200.729 249.342H200.4L198.81 245.794V249.342H198.358V244.883H198.836L200.561 248.748L202.287 244.883H202.772ZM205.601 249.394C205.269 249.394 204.97 249.321 204.703 249.174C204.44 249.023 204.231 248.812 204.076 248.541C203.925 248.265 203.849 247.944 203.849 247.578C203.849 247.212 203.927 246.893 204.082 246.622C204.237 246.346 204.448 246.135 204.715 245.988C204.983 245.837 205.282 245.762 205.614 245.762C205.945 245.762 206.245 245.837 206.512 245.988C206.783 246.135 206.995 246.346 207.145 246.622C207.3 246.893 207.378 247.212 207.378 247.578C207.378 247.94 207.3 248.259 207.145 248.534C206.99 248.81 206.777 249.023 206.506 249.174C206.234 249.321 205.933 249.394 205.601 249.394ZM205.601 249C205.833 249 206.049 248.948 206.247 248.845C206.445 248.737 206.605 248.578 206.725 248.366C206.85 248.151 206.913 247.888 206.913 247.578C206.913 247.268 206.852 247.007 206.732 246.796C206.611 246.581 206.452 246.421 206.254 246.318C206.055 246.21 205.84 246.156 205.607 246.156C205.375 246.156 205.159 246.21 204.961 246.318C204.763 246.421 204.603 246.581 204.483 246.796C204.366 247.007 204.308 247.268 204.308 247.578C204.308 247.888 204.366 248.151 204.483 248.366C204.603 248.578 204.761 248.737 204.955 248.845C205.153 248.948 205.368 249 205.601 249ZM210.116 245.749C210.538 245.749 210.882 245.881 211.15 246.143C211.417 246.402 211.55 246.779 211.55 247.274V249.342H211.104V247.326C211.104 246.943 211.007 246.65 210.813 246.447C210.624 246.245 210.363 246.143 210.031 246.143C209.691 246.143 209.42 246.251 209.217 246.466C209.015 246.682 208.913 246.999 208.913 247.416V249.342H208.461V245.814H208.913V246.415C209.026 246.199 209.187 246.036 209.398 245.924C209.609 245.807 209.848 245.749 210.116 245.749ZM212.602 247.572C212.602 247.21 212.676 246.893 212.822 246.622C212.969 246.346 213.169 246.135 213.423 245.988C213.682 245.837 213.972 245.762 214.296 245.762C214.606 245.762 214.886 245.837 215.136 245.988C215.386 246.139 215.569 246.335 215.685 246.576V244.56H216.137V249.342H215.685V248.554C215.577 248.799 215.401 249.002 215.155 249.161C214.909 249.316 214.621 249.394 214.289 249.394C213.966 249.394 213.675 249.319 213.417 249.168C213.162 249.017 212.962 248.804 212.816 248.528C212.673 248.252 212.602 247.933 212.602 247.572ZM215.685 247.578C215.685 247.294 215.627 247.044 215.51 246.828C215.394 246.613 215.235 246.447 215.032 246.331C214.834 246.214 214.614 246.156 214.373 246.156C214.123 246.156 213.899 246.212 213.701 246.324C213.503 246.436 213.346 246.6 213.229 246.815C213.117 247.027 213.061 247.279 213.061 247.572C213.061 247.86 213.117 248.114 213.229 248.334C213.346 248.55 213.503 248.715 213.701 248.832C213.899 248.944 214.123 249 214.373 249C214.614 249 214.834 248.942 215.032 248.825C215.235 248.709 215.394 248.543 215.51 248.328C215.627 248.112 215.685 247.862 215.685 247.578ZM217.222 247.572C217.222 247.21 217.293 246.893 217.435 246.622C217.581 246.346 217.782 246.135 218.036 245.988C218.295 245.837 218.585 245.762 218.908 245.762C219.244 245.762 219.533 245.84 219.774 245.995C220.02 246.15 220.197 246.348 220.304 246.589V245.814H220.757V249.342H220.304V248.56C220.192 248.802 220.014 249.002 219.768 249.161C219.527 249.316 219.238 249.394 218.902 249.394C218.583 249.394 218.295 249.319 218.036 249.168C217.782 249.017 217.581 248.804 217.435 248.528C217.293 248.252 217.222 247.933 217.222 247.572ZM220.304 247.578C220.304 247.294 220.246 247.044 220.13 246.828C220.014 246.613 219.854 246.447 219.652 246.331C219.453 246.214 219.234 246.156 218.992 246.156C218.743 246.156 218.519 246.212 218.32 246.324C218.122 246.436 217.965 246.6 217.849 246.815C217.737 247.027 217.681 247.279 217.681 247.572C217.681 247.86 217.737 248.114 217.849 248.334C217.965 248.55 218.122 248.715 218.32 248.832C218.519 248.944 218.743 249 218.992 249C219.234 249 219.453 248.942 219.652 248.825C219.854 248.709 220.014 248.543 220.13 248.328C220.246 248.112 220.304 247.862 220.304 247.578ZM224.956 245.814L222.862 251.003H222.39L223.075 249.323L221.628 245.814H222.125L223.328 248.825L224.491 245.814H224.956ZM226.242 248.593L225.569 250.286H225.259L225.737 248.593H226.242ZM229.048 248.987C229.841 248.392 230.453 247.86 230.883 247.391C231.318 246.917 231.536 246.454 231.536 246.001C231.536 245.704 231.461 245.467 231.31 245.29C231.163 245.109 230.922 245.019 230.586 245.019C230.259 245.019 230.004 245.122 229.823 245.329C229.647 245.532 229.548 245.803 229.526 246.143H229.087C229.113 245.665 229.259 245.295 229.526 245.032C229.798 244.765 230.151 244.631 230.586 244.631C231.004 244.631 231.342 244.75 231.601 244.987C231.859 245.219 231.988 245.551 231.988 245.982C231.988 246.503 231.771 247.009 231.336 247.5C230.905 247.987 230.373 248.463 229.739 248.929H232.131V249.31H229.048V248.987ZM233.978 245.186C234.231 245.186 234.438 245.265 234.598 245.423C234.759 245.578 234.839 245.804 234.839 246.101V247.342H234.571V246.133C234.571 245.902 234.513 245.727 234.397 245.605C234.283 245.484 234.127 245.423 233.928 245.423C233.723 245.423 233.561 245.488 233.439 245.617C233.318 245.746 233.257 245.936 233.257 246.187V247.342H232.985V245.225H233.257V245.586C233.324 245.457 233.421 245.358 233.548 245.291C233.674 245.221 233.818 245.186 233.978 245.186ZM235.47 246.28C235.47 246.063 235.514 245.873 235.602 245.71C235.69 245.544 235.81 245.418 235.963 245.33C236.118 245.239 236.292 245.194 236.486 245.194C236.672 245.194 236.84 245.239 236.99 245.33C237.14 245.42 237.25 245.538 237.32 245.683V244.473H237.591V247.342H237.32V246.869C237.255 247.017 237.149 247.138 237.002 247.234C236.854 247.327 236.681 247.373 236.482 247.373C236.288 247.373 236.114 247.328 235.959 247.238C235.806 247.147 235.686 247.019 235.598 246.854C235.513 246.688 235.47 246.497 235.47 246.28ZM237.32 246.284C237.32 246.113 237.285 245.963 237.215 245.834C237.145 245.705 237.05 245.605 236.928 245.535C236.809 245.466 236.677 245.431 236.533 245.431C236.383 245.431 236.248 245.464 236.129 245.532C236.01 245.599 235.916 245.697 235.846 245.826C235.779 245.953 235.745 246.104 235.745 246.28C235.745 246.453 235.779 246.606 235.846 246.737C235.916 246.867 236.01 246.966 236.129 247.036C236.248 247.103 236.383 247.137 236.533 247.137C236.677 247.137 236.809 247.102 236.928 247.032C237.05 246.962 237.145 246.863 237.215 246.734C237.285 246.604 237.32 246.454 237.32 246.284ZM242.692 244.825V248.244C242.692 248.588 242.586 248.866 242.375 249.077C242.164 249.284 241.882 249.388 241.529 249.388C241.162 249.388 240.869 249.278 240.65 249.058C240.434 248.834 240.327 248.532 240.327 248.153H240.785C240.79 248.399 240.85 248.599 240.966 248.754C241.087 248.909 241.274 248.987 241.529 248.987C241.77 248.987 241.949 248.916 242.065 248.774C242.181 248.631 242.239 248.455 242.239 248.244V244.825H242.692ZM243.881 247.572C243.881 247.21 243.952 246.893 244.094 246.622C244.241 246.346 244.441 246.135 244.695 245.988C244.954 245.837 245.245 245.762 245.568 245.762C245.904 245.762 246.193 245.84 246.434 245.995C246.679 246.15 246.856 246.348 246.964 246.589V245.814H247.416V249.342H246.964V248.56C246.852 248.802 246.673 249.002 246.427 249.161C246.186 249.316 245.897 249.394 245.561 249.394C245.243 249.394 244.954 249.319 244.695 249.168C244.441 249.017 244.241 248.804 244.094 248.528C243.952 248.252 243.881 247.933 243.881 247.572ZM246.964 247.578C246.964 247.294 246.906 247.044 246.789 246.828C246.673 246.613 246.513 246.447 246.311 246.331C246.113 246.214 245.893 246.156 245.652 246.156C245.402 246.156 245.178 246.212 244.98 246.324C244.782 246.436 244.624 246.6 244.508 246.815C244.396 247.027 244.34 247.279 244.34 247.572C244.34 247.86 244.396 248.114 244.508 248.334C244.624 248.55 244.782 248.715 244.98 248.832C245.178 248.944 245.402 249 245.652 249C245.893 249 246.113 248.942 246.311 248.825C246.513 248.709 246.673 248.543 246.789 248.328C246.906 248.112 246.964 247.862 246.964 247.578ZM250.362 245.749C250.784 245.749 251.129 245.881 251.396 246.143C251.663 246.402 251.796 246.779 251.796 247.274V249.342H251.35V247.326C251.35 246.943 251.254 246.65 251.06 246.447C250.87 246.245 250.609 246.143 250.278 246.143C249.937 246.143 249.666 246.251 249.463 246.466C249.261 246.682 249.16 246.999 249.16 247.416V249.342H248.707V245.814H249.16V246.415C249.272 246.199 249.433 246.036 249.644 245.924C249.855 245.807 250.095 245.749 250.362 245.749ZM254.9 248.987C255.693 248.392 256.304 247.86 256.735 247.391C257.17 246.917 257.388 246.454 257.388 246.001C257.388 245.704 257.312 245.467 257.162 245.29C257.015 245.109 256.774 245.019 256.438 245.019C256.11 245.019 255.856 245.122 255.675 245.329C255.499 245.532 255.4 245.803 255.378 246.143H254.939C254.964 245.665 255.111 245.295 255.378 245.032C255.649 244.765 256.003 244.631 256.438 244.631C256.856 244.631 257.194 244.75 257.452 244.987C257.711 245.219 257.84 245.551 257.84 245.982C257.84 246.503 257.623 247.009 257.188 247.5C256.757 247.987 256.225 248.463 255.591 248.929H257.982V249.31H254.9V248.987ZM258.947 246.983C258.947 246.242 259.061 245.667 259.29 245.258C259.518 244.849 259.927 244.644 260.517 244.644C261.108 244.644 261.517 244.849 261.745 245.258C261.974 245.667 262.088 246.242 262.088 246.983C262.088 247.737 261.974 248.321 261.745 248.735C261.517 249.148 261.108 249.355 260.517 249.355C259.923 249.355 259.511 249.148 259.283 248.735C259.059 248.321 258.947 247.737 258.947 246.983ZM261.642 246.983C261.642 246.583 261.614 246.245 261.558 245.969C261.502 245.693 261.392 245.471 261.228 245.303C261.065 245.135 260.828 245.051 260.517 245.051C260.207 245.051 259.97 245.135 259.807 245.303C259.643 245.471 259.533 245.693 259.477 245.969C259.421 246.245 259.393 246.583 259.393 246.983C259.393 247.397 259.421 247.744 259.477 248.024C259.533 248.3 259.643 248.522 259.807 248.69C259.97 248.858 260.207 248.942 260.517 248.942C260.828 248.942 261.065 248.858 261.228 248.69C261.392 248.522 261.502 248.3 261.558 248.024C261.614 247.744 261.642 247.397 261.642 246.983ZM263.097 248.987C263.89 248.392 264.502 247.86 264.933 247.391C265.368 246.917 265.585 246.454 265.585 246.001C265.585 245.704 265.51 245.467 265.359 245.29C265.213 245.109 264.971 245.019 264.635 245.019C264.308 245.019 264.054 245.122 263.873 245.329C263.696 245.532 263.597 245.803 263.576 246.143H263.136C263.162 245.665 263.308 245.295 263.576 245.032C263.847 244.765 264.2 244.631 264.635 244.631C265.053 244.631 265.391 244.75 265.65 244.987C265.908 245.219 266.038 245.551 266.038 245.982C266.038 246.503 265.82 247.009 265.385 247.5C264.954 247.987 264.422 248.463 263.789 248.929H266.18V249.31H263.097V248.987ZM266.944 248.244V247.901L269.297 244.735H269.833V247.849H270.524V248.244H269.833V249.342H269.387V248.244H266.944ZM269.406 245.232L267.468 247.849H269.406V245.232Z" fill="#9B9B9B"/>
<defs>
<filter id="filter0_b_192_879" x="-161.4" y="-161.4" width="791.328" height="591.8" filterUnits="userSpaceOnUse" color-interpolation-filters="sRGB">
<feFlood flood-opacity="0" result="BackgroundImageFix"/>
<feGaussianBlur in="BackgroundImageFix" stdDeviation="80.7"/>
<feComposite in2="SourceAlpha" operator="in" result="effect1_backgroundBlur_192_879"/>
<feBlend mode="normal" in="SourceGraphic" in2="effect1_backgroundBlur_192_879" result="shape"/>
</filter>
<linearGradient id="paint0_linear_192_879" x1="376.035" y1="-38.7748" x2="234.264" y2="369.572" gradientUnits="userSpaceOnUse">
<stop stop-color="#FAE8D2"/>
<stop offset="1" stop-color="#F2F2F2"/>
</linearGradient>
<clipPath id="clip0_192_879">
<rect x="257.354" y="269" width="170.447" height="211.646" rx="9.69369" transform="rotate(-90 257.354 269)" fill="white"/>
</clipPath>
</defs>
</svg>
