<svg width="379" height="320" viewBox="0 0 379 320" fill="none" xmlns="http://www.w3.org/2000/svg">
<rect width="379" height="320" rx="12" fill="#FFB547"/>
<g clip-path="url(#clip0_192_875)">
<path fill-rule="evenodd" clip-rule="evenodd" d="M339.113 144.875C339.631 146.175 340.136 147.494 340.622 148.848C341.114 150.195 341.593 151.569 342.052 152.97C344.913 161.677 347.209 171.452 348.587 182.356C348.784 183.928 348.968 185.513 349.125 187.125C349.289 188.764 349.427 190.424 349.545 192.111C349.86 196.505 350.024 201.07 350.024 205.804C350.024 211.817 349.729 217.572 349.184 223.062C338.693 234.578 330.898 245.945 325.098 256.679C324.921 249.598 324.278 242.027 323.011 233.986C322.677 231.877 322.303 229.748 321.883 227.578C321.515 225.667 321.109 223.735 320.669 221.769C319.58 216.919 318.261 211.919 316.686 206.777C316.398 205.831 316.102 204.892 315.807 203.961C315.19 202.042 314.56 200.158 313.917 198.315C313.294 196.512 312.651 194.75 312.002 193.022C304.082 172.064 294.378 156.426 284.858 144.848C292.829 124.842 303.642 111.272 311.982 103C320.321 111.278 331.147 124.849 339.113 144.875ZM383.742 165.168C384.171 173.836 383.897 183.504 382.553 194.153C392.869 187.378 402.518 182.895 411.046 179.945C411.005 170.488 409.796 162.478 408.361 156.291C401.675 157.702 393.134 160.326 383.742 165.168ZM450 233.508C444.046 231.668 436.098 229.998 426.545 229.783C421.42 239.93 414.445 250.85 404.98 262.164C416.862 261.578 426.921 262.809 435.162 264.793C443.555 253.014 447.833 241.784 450 233.508ZM318.179 314.779C318.063 314.654 317.95 314.528 317.838 314.405C318.845 313.954 319.931 313.502 321.096 313.062C321.933 312.746 322.808 312.435 323.724 312.135C326.96 311.078 330.698 310.153 334.932 309.575C337.487 309.225 340.223 309.003 343.138 308.953C348.69 308.859 354.892 309.393 361.735 310.881C362.611 311.071 363.472 311.27 364.317 311.477C366.833 312.095 369.21 312.784 371.453 313.53C373.469 314.201 375.376 314.917 377.182 315.669C378.307 316.138 379.391 316.621 380.437 317.114C382.274 317.982 383.992 318.885 385.597 319.81C387.162 320.711 388.621 321.634 389.978 322.565C394.951 325.975 398.566 329.496 401.11 332.507C392.898 336.494 378.203 340.593 356.673 335.912C343.73 333.098 334.206 328.116 327.312 323.005C325.792 321.878 324.399 320.745 323.127 319.627C321.955 318.598 320.884 317.582 319.906 316.595C319.655 316.342 319.41 316.09 319.171 315.841C319 315.661 318.831 315.484 318.666 315.307C318.5 315.13 318.338 314.954 318.179 314.779ZM174 233.508C176.167 241.784 180.445 253.014 188.838 264.793C197.079 262.809 207.138 261.578 219.02 262.164C209.555 250.85 202.58 239.93 197.455 229.783C187.902 229.998 179.954 231.668 174 233.508ZM232.808 314.505C200.008 305.213 183.034 288.493 175.049 277.501C178.054 276.058 181.715 274.582 186.032 273.29C187.259 272.923 188.545 272.569 189.884 272.236C191.176 271.916 192.515 271.617 193.906 271.344C202.678 269.603 213.426 268.834 226.154 270.249C228.051 270.453 229.993 270.719 231.974 271.025C234.054 271.351 236.187 271.739 238.365 272.181L238.634 272.238C239.313 272.383 239.999 272.528 240.694 272.684C242.446 273.072 244.224 273.501 246.035 273.97C246.113 273.992 246.192 274.012 246.27 274.033L246.409 274.069L246.409 274.069L246.41 274.069C246.534 274.101 246.659 274.133 246.783 274.167C249.158 274.8 251.461 275.48 253.686 276.195C263.646 279.419 272.07 283.432 279.176 287.759C285.278 291.473 290.402 295.404 294.687 299.255C295.507 300.037 296.314 300.785 297.115 301.513C297.25 301.64 297.378 301.766 297.507 301.893L297.515 301.901C298.309 302.663 299.063 303.424 299.785 304.173C299.575 304.111 299.352 304.05 299.135 303.989C297.174 303.458 295.081 302.975 292.843 302.581C292.233 302.472 291.61 302.37 290.98 302.275C288.283 301.873 285.396 301.594 282.326 301.492C281.847 301.479 281.368 301.465 280.876 301.458C278.612 301.424 276.243 301.486 273.783 301.669C273.761 301.669 273.737 301.671 273.712 301.673C273.686 301.674 273.659 301.676 273.632 301.676C271.48 301.833 269.255 302.084 266.952 302.424C264.951 302.73 262.898 303.105 260.785 303.56C255.575 304.696 250.877 306.111 246.652 307.717C244.893 308.383 243.227 309.084 241.633 309.805C240.071 310.512 238.595 311.247 237.177 311.995C235.642 312.812 234.186 313.648 232.808 314.505ZM267.327 335.913C280.272 333.097 289.799 328.117 296.688 323.009C298.21 321.88 299.602 320.744 300.874 319.628C302.049 318.601 303.118 317.581 304.096 316.594L304.102 316.588C304.349 316.339 304.597 316.089 304.831 315.839C305.001 315.662 305.172 315.485 305.336 315.309L305.344 315.3L305.344 315.3C305.505 315.126 305.667 314.952 305.822 314.778C305.94 314.656 306.051 314.526 306.163 314.404C305.159 313.955 304.07 313.506 302.908 313.064C302.068 312.744 301.196 312.438 300.277 312.139C297.043 311.077 293.303 310.152 289.071 309.574C286.518 309.227 283.782 309.003 280.863 308.955C275.312 308.86 269.111 309.397 262.268 310.88C261.389 311.071 260.529 311.268 259.683 311.479C257.17 312.098 254.794 312.785 252.551 313.533C250.536 314.2 248.627 314.914 246.823 315.669C245.694 316.138 244.611 316.621 243.568 317.118C241.731 317.982 240.012 318.887 238.405 319.812C236.843 320.71 235.38 321.635 234.021 322.567C229.048 325.975 225.439 329.498 222.894 332.505C231.102 336.491 245.799 340.593 267.327 335.913ZM357.235 205.804C357.235 208.912 357.163 211.96 357.019 214.932C362.93 209.137 368.75 204.157 374.419 199.886C376.276 188.56 376.873 178.315 376.65 169.173C376.617 167.731 376.558 166.316 376.486 164.928C376.407 163.52 376.315 162.139 376.204 160.792C375.003 146.453 371.821 135.331 368.75 127.549C362.753 131.522 355.26 137.542 347.472 146.392C350.654 155.194 353.285 165.098 355.018 176.179C355.241 177.628 355.451 179.104 355.647 180.601C355.844 182.104 356.021 183.635 356.185 185.179C356.868 191.682 357.235 198.552 357.235 205.804ZM343.122 301.459C342.637 301.465 342.151 301.479 341.672 301.492C338.608 301.594 335.721 301.873 333.024 302.275C332.388 302.37 331.771 302.472 331.154 302.581C328.904 302.982 326.791 303.465 324.823 304.003C324.62 304.064 324.417 304.118 324.215 304.172L324.215 304.172L324.214 304.172L324.214 304.172L324.214 304.172L324.213 304.173C324.895 303.465 325.61 302.751 326.351 302.03C326.522 301.86 326.706 301.683 326.883 301.513C327.683 300.785 328.497 300.037 329.311 299.255C333.595 295.404 338.726 291.473 344.822 287.759C351.927 283.432 360.352 279.419 370.319 276.195C372.543 275.48 374.839 274.8 377.221 274.167L377.274 274.153L377.362 274.13C377.438 274.11 377.513 274.09 377.589 274.07L377.591 274.07L377.593 274.069L377.595 274.069L377.596 274.069C377.72 274.036 377.845 274.004 377.969 273.97C379.78 273.501 381.558 273.072 383.31 272.684C384.088 272.508 384.86 272.345 385.632 272.183L385.639 272.181C387.818 271.739 389.943 271.351 392.03 271.025C394.011 270.719 395.947 270.453 397.843 270.249C410.572 268.834 421.319 269.603 430.092 271.344C431.483 271.617 432.821 271.916 434.114 272.236C435.452 272.569 436.738 272.923 437.972 273.29C442.289 274.582 445.944 276.058 448.949 277.501C440.964 288.493 423.99 305.213 391.19 314.505C389.819 313.648 388.362 312.812 386.82 311.995C385.41 311.247 383.927 310.512 382.372 309.805C380.777 309.084 379.104 308.383 377.352 307.717C373.127 306.111 368.429 304.696 363.213 303.56C361.1 303.105 359.046 302.73 357.045 302.424C354.749 302.084 352.518 301.833 350.366 301.676C350.313 301.676 350.267 301.669 350.215 301.669C347.754 301.486 345.392 301.424 343.122 301.459ZM323.084 286.16C322.434 290.085 321.66 293.745 320.827 297.132C320.893 297.064 320.958 297.003 321.024 296.935C321.16 296.803 321.296 296.67 321.433 296.537C321.692 296.286 321.952 296.032 322.218 295.778C324.993 293.126 328.143 290.405 331.699 287.718C333.884 286.065 336.22 284.425 338.72 282.82C339.153 282.541 339.592 282.262 340.038 281.983C342.505 280.446 345.136 278.936 347.925 277.48C349.998 276.399 352.164 275.344 354.421 274.331C360.89 271.426 368.127 268.821 376.211 266.719C377.26 266.447 378.304 266.181 379.34 265.936C381.223 265.488 383.074 265.079 384.891 264.712C386.65 264.358 388.382 264.045 390.088 263.767C391.551 263.528 393.001 263.311 394.425 263.127C404.903 251.563 412.593 240.373 418.222 229.972C418.931 228.666 419.6 227.381 420.243 226.102C420.886 224.816 421.503 223.544 422.087 222.286C429.665 205.994 432.224 192.097 432.9 182.444C428.747 182.941 423.78 183.866 418.177 185.505C416.982 185.859 415.755 186.24 414.502 186.655C413.295 187.063 412.055 187.498 410.802 187.968C401.885 191.308 391.774 196.43 381.007 204.219C379.583 205.246 378.153 206.321 376.709 207.436C375.233 208.586 373.744 209.79 372.248 211.041C366.959 215.47 361.559 220.551 356.094 226.394C355.972 226.527 355.849 226.658 355.726 226.789C355.603 226.92 355.48 227.051 355.359 227.183C354.152 228.49 352.977 229.796 351.842 231.095C350.254 232.918 348.739 234.734 347.282 236.544C336.384 250.107 329.225 263.256 324.508 275.099C324.442 275.814 324.37 276.528 324.298 277.228C323.97 280.344 323.556 283.323 323.084 286.16ZM269.583 274.331C263.114 271.426 255.876 268.821 247.786 266.719C246.737 266.447 245.693 266.181 244.663 265.936C242.78 265.488 240.93 265.079 239.106 264.712C237.347 264.358 235.615 264.045 233.916 263.767C232.446 263.528 231.003 263.311 229.572 263.127C219.101 251.563 211.404 240.373 205.775 229.972C205.072 228.666 204.397 227.381 203.754 226.102C203.111 224.816 202.494 223.544 201.91 222.286C194.338 205.994 191.779 192.097 191.097 182.444C195.257 182.941 200.224 183.866 205.821 185.505C207.015 185.859 208.242 186.24 209.495 186.655C210.709 187.063 211.942 187.498 213.202 187.968C222.112 191.308 232.223 196.43 242.997 204.219C244.414 205.246 245.844 206.321 247.288 207.436C248.764 208.586 250.253 209.79 251.756 211.041C257.025 215.456 262.418 220.531 267.864 226.354C268.126 226.632 268.382 226.905 268.638 227.183C269.832 228.476 270.994 229.768 272.116 231.047C273.703 232.87 275.219 234.68 276.676 236.489C287.6 250.073 294.772 263.243 299.489 275.099C300.073 276.562 300.624 278.011 301.13 279.432C303.19 285.16 304.679 290.541 305.762 295.459C305.768 295.514 305.773 295.569 305.778 295.624C305.783 295.683 305.788 295.742 305.795 295.799C305.919 297.343 306.07 298.846 306.234 300.295C305.276 299.254 304.253 298.2 303.177 297.132L302.842 296.806L302.806 296.77C302.47 296.442 302.128 296.107 301.786 295.778C298.984 293.105 295.815 290.371 292.232 287.67C290.054 286.024 287.725 284.384 285.225 282.786L284.99 282.635C284.653 282.418 284.311 282.198 283.965 281.983C281.492 280.446 278.861 278.936 276.072 277.48C273.999 276.399 271.84 275.344 269.583 274.331ZM302.495 263.773C303.768 266.46 304.916 269.1 305.959 271.678C306.176 272.222 306.392 272.766 306.602 273.303C307.495 275.603 308.302 277.854 309.03 280.051C309.935 282.779 310.716 285.425 311.399 287.976C311.576 288.648 311.744 289.31 311.91 289.967L312.002 290.33C312.337 291.683 312.645 293.017 312.921 294.309C313.104 295.159 313.275 295.996 313.439 296.819C313.964 294.799 314.463 292.663 314.928 290.418C315.998 285.269 316.877 279.562 317.402 273.303C317.527 271.787 317.632 270.236 317.717 268.651C318.025 262.705 317.999 256.318 317.52 249.502C317.31 246.55 317.015 243.516 316.621 240.407C316.319 238.006 315.958 235.55 315.532 233.054C314.646 227.816 313.485 222.374 312.002 216.742C311.418 214.538 310.795 212.3 310.112 210.035C310.063 209.868 310.012 209.701 309.961 209.535L309.961 209.534L309.961 209.533C309.91 209.367 309.86 209.201 309.811 209.035C309.279 207.314 308.741 205.62 308.197 203.96C300.815 181.723 291.36 165.166 281.925 152.936C281.026 151.772 280.127 150.643 279.229 149.562C278.317 148.453 277.411 147.385 276.506 146.358C268.724 137.528 261.238 131.515 255.254 127.549C252.183 135.331 248.994 146.453 247.793 160.792C247.682 162.139 247.59 163.52 247.511 164.928C247.439 166.316 247.38 167.731 247.347 169.173C247.124 178.315 247.728 188.56 249.585 199.886C255.24 204.151 261.047 209.116 266.946 214.898C268.225 216.15 269.505 217.442 270.791 218.776C271.808 219.83 272.825 220.905 273.848 222.014C274.002 222.18 274.156 222.348 274.311 222.517C274.465 222.685 274.619 222.854 274.773 223.02C285.291 234.55 293.093 245.931 298.899 256.678C300.192 259.08 301.393 261.447 302.495 263.773ZM240.657 165.168C240.228 173.836 240.502 183.504 241.846 194.153C231.531 187.378 221.881 182.895 213.353 179.945C213.394 170.488 214.604 162.478 216.038 156.291C222.725 157.702 231.265 160.326 240.657 165.168Z" fill="white" fill-opacity="0.2"/>
</g>
<defs>
<clipPath id="clip0_192_875">
<rect x="174" y="103" width="205" height="217" rx="12" fill="white"/>
</clipPath>
</defs>
</svg>
